<svg width="24" height="25" viewBox="0 0 24 25" fill="none" xmlns="http://www.w3.org/2000/svg">
<path d="M20.4891 3.51286C15.8069 -1.16835 8.19233 -1.16835 3.51013 3.51286C-1.17004 8.19407 -1.17004 15.8106 3.51013 20.4918C5.85123 22.8319 8.92566 24.0014 12.0001 24.0014C15.0746 24.0014 18.148 22.8319 20.4891 20.4918C25.1703 15.8107 25.1703 8.19407 20.4891 3.51286ZM16.9514 15.5395C17.3426 15.9307 17.3426 16.563 16.9514 16.9541C16.7563 17.1492 16.5002 17.2473 16.2441 17.2473C15.988 17.2473 15.7318 17.1492 15.5367 16.9541L12.0001 13.4165L8.46442 16.9531C8.26835 17.1482 8.0122 17.2463 7.75708 17.2463C7.50097 17.2463 7.24482 17.1482 7.04973 16.9531C6.65856 16.5619 6.65856 15.9286 7.04973 15.5385L10.5854 12.0018L7.04874 8.46518C6.65758 8.07401 6.65758 7.44072 7.04874 7.05053C7.43893 6.65937 8.07222 6.65937 8.46339 7.05053L12 10.5872L15.5367 7.05053C15.9278 6.65937 16.5602 6.65937 16.9513 7.05053C17.3425 7.44072 17.3425 8.07401 16.9513 8.46518L13.4147 12.0018L16.9514 15.5395Z" fill="#EF4444"/>
</svg>
