<svg width="24" height="24" viewBox="0 0 24 24" fill="none" xmlns="http://www.w3.org/2000/svg">
<circle cx="12" cy="12" r="12" fill="#84CC16"/>
<path d="M18.7694 9.3316L11.5169 16.5433C11.3714 16.6881 11.1986 16.8029 11.0083 16.8813C10.8181 16.9597 10.6143 17 10.4084 17C10.2025 17 9.99861 16.9597 9.8084 16.8813C9.61818 16.8029 9.44536 16.6881 9.29981 16.5433L6.23 13.4915C6.08273 13.3451 6 13.1465 6 12.9394C6 12.7323 6.08273 12.5337 6.23 12.3872C6.37726 12.2408 6.577 12.1585 6.78526 12.1585C6.99352 12.1585 7.19326 12.2408 7.34052 12.3872L10.4095 15.439L17.6628 8.22733C17.7357 8.15507 17.8223 8.09781 17.9174 8.05881C18.0126 8.0198 18.1146 7.99982 18.2175 8C18.3204 8.00018 18.4223 8.02052 18.5174 8.05986C18.6124 8.0992 18.6987 8.15677 18.7714 8.22927C18.844 8.30178 18.9016 8.38781 18.9409 8.48245C18.9801 8.57709 19.0002 8.67848 19 8.78084C18.9998 8.8832 18.9794 8.98452 18.9398 9.07902C18.9002 9.17352 18.8423 9.25935 18.7694 9.3316Z" fill="white" stroke="white" stroke-width="0.5"/>
</svg>
