<svg width="24" height="23" viewBox="0 0 24 23" fill="none" xmlns="http://www.w3.org/2000/svg">
<path d="M23.5013 17.3058L15.0233 1.72102C13.6612 -0.572151 10.3407 -0.575197 8.9767 1.72102L0.499073 17.3058C-0.893396 19.6491 0.792464 22.6164 3.52167 22.6164H20.478C23.205 22.6164 24.8938 19.6515 23.5013 17.3058ZM12 19.8039C11.2248 19.8039 10.5937 19.1728 10.5937 18.3976C10.5937 17.6224 11.2248 16.9914 12 16.9914C12.7752 16.9914 13.4062 17.6224 13.4062 18.3976C13.4062 19.1728 12.7752 19.8039 12 19.8039ZM13.4062 14.1789C13.4062 14.9541 12.7752 15.5851 12 15.5851C11.2248 15.5851 10.5937 14.9541 10.5937 14.1789V7.1476C10.5937 6.37238 11.2248 5.74135 12 5.74135C12.7752 5.74135 13.4062 6.37238 13.4062 7.1476V14.1789Z" fill="#F59E0B"/>
</svg>
