<svg width="31" height="31" viewBox="0 0 31 31" fill="none" xmlns="http://www.w3.org/2000/svg">
<circle cx="15.5" cy="15.5" r="15.5" fill="#FFF0EB"/>
<mask id="mask0" mask-type="alpha" maskUnits="userSpaceOnUse" x="0" y="0" width="31" height="31">
<circle cx="15.5" cy="15.5" r="15.5" fill="#C4C4C4"/>
</mask>
<g mask="url(#mask0)">
<path d="M16.0013 17.9987C20.0514 17.9987 23.3346 14.7155 23.3346 10.6654C23.3346 6.61528 20.0514 3.33203 16.0013 3.33203C11.9512 3.33203 8.66797 6.61528 8.66797 10.6654C8.66797 14.7155 11.9512 17.9987 16.0013 17.9987Z" fill="#FFD7CB"/>
<path d="M16 20.4414C13.0836 20.4446 10.2876 21.6046 8.2254 23.6668C6.1632 25.729 5.00324 28.525 5 31.4414C5 31.7656 5.12877 32.0764 5.35798 32.3056C5.58719 32.5349 5.89807 32.6636 6.22222 32.6636H25.7778C26.1019 32.6636 26.4128 32.5349 26.642 32.3056C26.8712 32.0764 27 31.7656 27 31.4414C26.9968 28.525 25.8368 25.729 23.7746 23.6668C21.7124 21.6046 18.9164 20.4446 16 20.4414Z" fill="#FFD7CB"/>
</g>
</svg>
