
<svg width="164" height="164" viewBox="0 0 164 164" fill="none" xmlns="http://www.w3.org/2000/svg">
    <circle cx="82" cy="82" r="82" fill="#D5D5D5" fill-opacity="0.26"/>
    <mask id="mask0" mask-type="alpha" maskUnits="userSpaceOnUse" x="0" y="0" width="164" height="164">
        <circle cx="82" cy="82" r="82" fill="#C4C4C4"/>
    </mask>
    <g mask="url(#mask0)">
        <path d="M84.6419 95.2203C106.068 95.2203 123.438 77.8509 123.438 56.4246C123.438 34.9983 106.068 17.6289 84.6419 17.6289C63.2156 17.6289 45.8462 34.9983 45.8462 56.4246C45.8462 77.8509 63.2156 95.2203 84.6419 95.2203Z" fill="#D5D5D5"/>
        <path d="M84.6423 108.152C69.2136 108.169 54.4218 114.306 43.5121 125.216C32.6024 136.125 26.4658 150.917 26.4487 166.346C26.4487 168.061 27.13 169.705 28.3426 170.918C29.5552 172.131 31.1998 172.812 32.9147 172.812H136.37C138.085 172.812 139.729 172.131 140.942 170.918C142.155 169.705 142.836 168.061 142.836 166.346C142.819 150.917 136.682 136.125 125.772 125.216C114.863 114.306 100.071 108.169 84.6423 108.152Z" fill="#D5D5D5"/>
    </g>
    <path d="M162.407 143.121C161.985 143.121 161.58 143.289 161.281 143.587C160.983 143.886 160.815 144.291 160.815 144.713V147.898C160.815 149.165 160.312 150.38 159.416 151.275C158.52 152.171 157.305 152.674 156.038 152.674H152.854C152.432 152.674 152.027 152.842 151.728 153.141C151.429 153.439 151.262 153.844 151.262 154.267C151.262 154.689 151.429 155.094 151.728 155.393C152.027 155.691 152.432 155.859 152.854 155.859H156.038C158.149 155.856 160.173 155.017 161.665 153.524C163.157 152.032 163.997 150.008 164 147.898V144.713C164 144.291 163.832 143.886 163.533 143.587C163.235 143.289 162.83 143.121 162.407 143.121Z" fill="#747474"/>
    <path d="M127.378 130.384C127.801 130.384 128.206 130.217 128.504 129.918C128.803 129.619 128.971 129.214 128.971 128.792V125.608C128.971 124.341 129.474 123.126 130.37 122.23C131.265 121.334 132.48 120.831 133.747 120.831H136.932C137.354 120.831 137.759 120.663 138.058 120.365C138.356 120.066 138.524 119.661 138.524 119.239C138.524 118.816 138.356 118.411 138.058 118.113C137.759 117.814 137.354 117.646 136.932 117.646H133.747C131.637 117.649 129.613 118.489 128.121 119.981C126.628 121.474 125.789 123.497 125.786 125.608V128.792C125.786 129.214 125.954 129.619 126.252 129.918C126.551 130.217 126.956 130.384 127.378 130.384Z" fill="#747474"/>
    <path d="M136.932 152.674H133.747C132.48 152.674 131.265 152.171 130.37 151.275C129.474 150.38 128.971 149.165 128.971 147.898V144.713C128.971 144.291 128.803 143.886 128.504 143.587C128.206 143.289 127.801 143.121 127.378 143.121C126.956 143.121 126.551 143.289 126.252 143.587C125.954 143.886 125.786 144.291 125.786 144.713V147.898C125.789 150.008 126.628 152.032 128.121 153.524C129.613 155.017 131.637 155.856 133.747 155.859H136.932C137.354 155.859 137.759 155.691 138.058 155.393C138.356 155.094 138.524 154.689 138.524 154.267C138.524 153.844 138.356 153.439 138.058 153.141C137.759 152.842 137.354 152.674 136.932 152.674Z" fill="#747474"/>
    <path d="M156.038 117.646H152.854C152.432 117.646 152.027 117.814 151.728 118.113C151.429 118.411 151.262 118.816 151.262 119.239C151.262 119.661 151.429 120.066 151.728 120.365C152.027 120.663 152.432 120.831 152.854 120.831H156.038C157.305 120.831 158.52 121.334 159.416 122.23C160.312 123.126 160.815 124.341 160.815 125.608V128.792C160.815 129.214 160.983 129.619 161.281 129.918C161.58 130.217 161.985 130.384 162.407 130.384C162.83 130.384 163.235 130.217 163.533 129.918C163.832 129.619 164 129.214 164 128.792V125.608C163.997 123.497 163.157 121.474 161.665 119.981C160.173 118.489 158.149 117.649 156.038 117.646V117.646Z" fill="#747474"/>
    <path d="M144.893 135.162C148.411 135.162 151.262 132.31 151.262 128.793C151.262 125.275 148.411 122.424 144.893 122.424C141.376 122.424 138.524 125.275 138.524 128.793C138.524 132.31 141.376 135.162 144.893 135.162Z" fill="#747474"/>
    <path d="M143.3 138.346C140.768 138.348 138.339 139.356 136.548 141.147C134.757 142.938 133.75 145.366 133.747 147.899C133.747 148.321 133.915 148.726 134.213 149.025C134.512 149.324 134.917 149.491 135.339 149.491H154.446C154.868 149.491 155.273 149.324 155.572 149.025C155.871 148.726 156.038 148.321 156.038 147.899C156.036 145.366 155.028 142.938 153.237 141.147C151.446 139.356 149.018 138.348 146.485 138.346H143.3Z" fill="#747474"/>
</svg>
