<svg width="114" height="101" viewBox="0 0 114 101" fill="none" xmlns="http://www.w3.org/2000/svg">
<rect x="22" width="72" height="72" rx="10" fill="#01395E" fill-opacity="0.05"/>
<path d="M40.9289 51.5409H57.0793C58.8271 53.7472 61.226 55.3529 63.9385 56.132C66.6511 56.9111 69.5408 56.8245 72.2012 55.8843C74.8617 54.9442 77.1592 53.1978 78.7705 50.8908C80.3817 48.5838 81.2258 45.8322 81.184 43.023C81.1422 40.2138 80.2165 37.4882 78.5372 35.2298C76.858 32.9713 74.5095 31.2934 71.8222 30.4321C69.1349 29.5708 66.2439 29.5695 63.5558 30.4282C60.8677 31.287 58.5176 32.9626 56.8362 35.2195C54.6827 34.7682 52.4551 34.8009 50.3158 35.3151C48.1766 35.8294 46.1796 36.8124 44.4706 38.1923C42.7617 39.5722 41.3837 41.3143 40.4373 43.2915C39.4909 45.2687 38.9998 47.4313 39 49.6213C39 50.1304 39.2032 50.6187 39.565 50.9787C39.9267 51.3387 40.4173 51.5409 40.9289 51.5409ZM67.6768 33.625C69.5844 33.625 71.4491 34.1879 73.0351 35.2425C74.6212 36.2972 75.8574 37.7961 76.5873 39.5499C77.3173 41.3037 77.5083 43.2335 77.1362 45.0953C76.764 46.957 75.8455 48.6672 74.4966 50.0095C73.1478 51.3518 71.4293 52.2659 69.5584 52.6362C67.6875 53.0065 65.7483 52.8165 63.986 52.09C62.2236 51.3636 60.7173 50.1334 59.6576 48.5551C58.5978 46.9767 58.0322 45.1211 58.0322 43.2228C58.0352 40.6783 59.0523 38.2388 60.8604 36.4395C62.6685 34.6402 65.1198 33.6281 67.6768 33.625Z" fill="#01395E"/>
<path d="M53.7886 15C52.1926 15 50.6325 15.471 49.3055 16.3533C47.9785 17.2357 46.9442 18.4898 46.3335 19.9571C45.7227 21.4245 45.5629 23.0391 45.8743 24.5968C46.1857 26.1545 46.9542 27.5853 48.0827 28.7083C49.2112 29.8314 50.6491 30.5962 52.2144 30.906C53.7797 31.2159 55.4021 31.0568 56.8766 30.449C58.3511 29.8413 59.6114 28.812 60.4981 27.4915C61.3847 26.1709 61.858 24.6184 61.858 23.0302C61.8556 20.9012 61.0047 18.86 59.4919 17.3546C57.9791 15.8492 55.928 15.0024 53.7886 15Z" fill="#01395E"/>
<path d="M63.8186 45.1411H65.7475V47.0607C65.7475 47.5698 65.9507 48.058 66.3125 48.418C66.6742 48.778 67.1649 48.9802 67.6765 48.9802C68.188 48.9802 68.6787 48.778 69.0404 48.418C69.4022 48.058 69.6054 47.5698 69.6054 47.0607V45.1411H71.5343C72.0459 45.1411 72.5365 44.9389 72.8983 44.5789C73.26 44.2189 73.4633 43.7307 73.4633 43.2216C73.4633 42.7125 73.26 42.2242 72.8983 41.8642C72.5365 41.5042 72.0459 41.302 71.5343 41.302H69.6054V39.3824C69.6054 38.8733 69.4022 38.3851 69.0404 38.0251C68.6787 37.6651 68.188 37.4629 67.6765 37.4629C67.1649 37.4629 66.6742 37.6651 66.3125 38.0251C65.9507 38.3851 65.7475 38.8733 65.7475 39.3824V41.302H63.8186C63.307 41.302 62.8164 41.5042 62.4546 41.8642C62.0929 42.2242 61.8896 42.7125 61.8896 43.2216C61.8896 43.7307 62.0929 44.2189 62.4546 44.5789C62.8164 44.9389 63.307 45.1411 63.8186 45.1411Z" fill="#01395E"/>
<path d="M0.416016 95L5.36426 82.1152H7.20117L12.4746 95H10.5322L9.0293 91.0977H3.6416L2.22656 95H0.416016ZM4.13379 89.709H8.50195L7.15723 86.1406C6.74707 85.0566 6.44238 84.166 6.24316 83.4688C6.0791 84.2949 5.84766 85.1152 5.54883 85.9297L4.13379 89.709ZM19.6904 95V93.8223C19.0986 94.748 18.2285 95.2109 17.0801 95.2109C16.3359 95.2109 15.6504 95.0059 15.0234 94.5957C14.4023 94.1855 13.9189 93.6143 13.5732 92.8818C13.2334 92.1436 13.0635 91.2969 13.0635 90.3418C13.0635 89.4102 13.2188 88.5664 13.5293 87.8105C13.8398 87.0488 14.3057 86.4658 14.9268 86.0615C15.5479 85.6572 16.2422 85.4551 17.0098 85.4551C17.5723 85.4551 18.0732 85.5752 18.5127 85.8154C18.9521 86.0498 19.3096 86.3574 19.585 86.7383V82.1152H21.1582V95H19.6904ZM14.6895 90.3418C14.6895 91.5371 14.9414 92.4307 15.4453 93.0225C15.9492 93.6143 16.5439 93.9102 17.2295 93.9102C17.9209 93.9102 18.5068 93.6289 18.9873 93.0664C19.4736 92.498 19.7168 91.6338 19.7168 90.4736C19.7168 89.1963 19.4707 88.2588 18.9785 87.6611C18.4863 87.0635 17.8799 86.7646 17.1592 86.7646C16.4561 86.7646 15.8672 87.0518 15.3926 87.626C14.9238 88.2002 14.6895 89.1055 14.6895 90.3418ZM29.71 95V93.8223C29.1182 94.748 28.248 95.2109 27.0996 95.2109C26.3555 95.2109 25.6699 95.0059 25.043 94.5957C24.4219 94.1855 23.9385 93.6143 23.5928 92.8818C23.2529 92.1436 23.083 91.2969 23.083 90.3418C23.083 89.4102 23.2383 88.5664 23.5488 87.8105C23.8594 87.0488 24.3252 86.4658 24.9463 86.0615C25.5674 85.6572 26.2617 85.4551 27.0293 85.4551C27.5918 85.4551 28.0928 85.5752 28.5322 85.8154C28.9717 86.0498 29.3291 86.3574 29.6045 86.7383V82.1152H31.1777V95H29.71ZM24.709 90.3418C24.709 91.5371 24.9609 92.4307 25.4648 93.0225C25.9688 93.6143 26.5635 93.9102 27.249 93.9102C27.9404 93.9102 28.5264 93.6289 29.0068 93.0664C29.4932 92.498 29.7363 91.6338 29.7363 90.4736C29.7363 89.1963 29.4902 88.2588 28.998 87.6611C28.5059 87.0635 27.8994 86.7646 27.1787 86.7646C26.4756 86.7646 25.8867 87.0518 25.4121 87.626C24.9434 88.2002 24.709 89.1055 24.709 90.3418ZM38.6836 95V85.666H40.0986V86.9756C40.3916 86.5186 40.7812 86.1523 41.2676 85.877C41.7539 85.5957 42.3076 85.4551 42.9287 85.4551C43.6201 85.4551 44.1855 85.5986 44.625 85.8857C45.0703 86.1729 45.3838 86.5742 45.5654 87.0898C46.3037 86 47.2646 85.4551 48.4482 85.4551C49.374 85.4551 50.0859 85.7129 50.584 86.2285C51.082 86.7383 51.3311 87.5264 51.3311 88.5928V95H49.7578V89.1201C49.7578 88.4873 49.7051 88.0332 49.5996 87.7578C49.5 87.4766 49.3154 87.251 49.0459 87.0811C48.7764 86.9111 48.46 86.8262 48.0967 86.8262C47.4404 86.8262 46.8955 87.0459 46.4619 87.4854C46.0283 87.9189 45.8115 88.6162 45.8115 89.5771V95H44.2295V88.9355C44.2295 88.2324 44.1006 87.7051 43.8428 87.3535C43.585 87.002 43.1631 86.8262 42.5771 86.8262C42.1318 86.8262 41.7188 86.9434 41.3379 87.1777C40.9629 87.4121 40.6904 87.7549 40.5205 88.2061C40.3506 88.6572 40.2656 89.3076 40.2656 90.1572V95H38.6836ZM60.0674 91.9941L61.7021 92.1963C61.4443 93.1514 60.9668 93.8926 60.2695 94.4199C59.5723 94.9473 58.6816 95.2109 57.5977 95.2109C56.2324 95.2109 55.1484 94.792 54.3457 93.9541C53.5488 93.1104 53.1504 91.9297 53.1504 90.4121C53.1504 88.8418 53.5547 87.623 54.3633 86.7559C55.1719 85.8887 56.2207 85.4551 57.5098 85.4551C58.7578 85.4551 59.7773 85.8799 60.5684 86.7295C61.3594 87.5791 61.7549 88.7744 61.7549 90.3154C61.7549 90.4092 61.752 90.5498 61.7461 90.7373H54.7852C54.8438 91.7627 55.1338 92.5479 55.6553 93.0928C56.1768 93.6377 56.8271 93.9102 57.6064 93.9102C58.1865 93.9102 58.6816 93.7578 59.0918 93.4531C59.502 93.1484 59.8271 92.6621 60.0674 91.9941ZM54.873 89.4365H60.085C60.0146 88.6514 59.8154 88.0625 59.4873 87.6699C58.9834 87.0605 58.3301 86.7559 57.5273 86.7559C56.8008 86.7559 56.1885 86.999 55.6904 87.4854C55.1982 87.9717 54.9258 88.6221 54.873 89.4365ZM63.6973 95V85.666H65.1123V86.9756C65.4053 86.5186 65.7949 86.1523 66.2812 85.877C66.7676 85.5957 67.3213 85.4551 67.9424 85.4551C68.6338 85.4551 69.1992 85.5986 69.6387 85.8857C70.084 86.1729 70.3975 86.5742 70.5791 87.0898C71.3174 86 72.2783 85.4551 73.4619 85.4551C74.3877 85.4551 75.0996 85.7129 75.5977 86.2285C76.0957 86.7383 76.3447 87.5264 76.3447 88.5928V95H74.7715V89.1201C74.7715 88.4873 74.7188 88.0332 74.6133 87.7578C74.5137 87.4766 74.3291 87.251 74.0596 87.0811C73.79 86.9111 73.4736 86.8262 73.1104 86.8262C72.4541 86.8262 71.9092 87.0459 71.4756 87.4854C71.042 87.9189 70.8252 88.6162 70.8252 89.5771V95H69.2432V88.9355C69.2432 88.2324 69.1143 87.7051 68.8564 87.3535C68.5986 87.002 68.1768 86.8262 67.5908 86.8262C67.1455 86.8262 66.7324 86.9434 66.3516 87.1777C65.9766 87.4121 65.7041 87.7549 65.5342 88.2061C65.3643 88.6572 65.2793 89.3076 65.2793 90.1572V95H63.6973ZM85.0811 91.9941L86.7158 92.1963C86.458 93.1514 85.9805 93.8926 85.2832 94.4199C84.5859 94.9473 83.6953 95.2109 82.6113 95.2109C81.2461 95.2109 80.1621 94.792 79.3594 93.9541C78.5625 93.1104 78.1641 91.9297 78.1641 90.4121C78.1641 88.8418 78.5684 87.623 79.377 86.7559C80.1855 85.8887 81.2344 85.4551 82.5234 85.4551C83.7715 85.4551 84.791 85.8799 85.582 86.7295C86.373 87.5791 86.7686 88.7744 86.7686 90.3154C86.7686 90.4092 86.7656 90.5498 86.7598 90.7373H79.7988C79.8574 91.7627 80.1475 92.5479 80.6689 93.0928C81.1904 93.6377 81.8408 93.9102 82.6201 93.9102C83.2002 93.9102 83.6953 93.7578 84.1055 93.4531C84.5156 93.1484 84.8408 92.6621 85.0811 91.9941ZM79.8867 89.4365H85.0986C85.0283 88.6514 84.8291 88.0625 84.501 87.6699C83.9971 87.0605 83.3438 86.7559 82.541 86.7559C81.8145 86.7559 81.2021 86.999 80.7041 87.4854C80.2119 87.9717 79.9395 88.6221 79.8867 89.4365ZM90.1699 95H88.7021V82.1152H90.2842V86.7119C90.9521 85.874 91.8047 85.4551 92.8418 85.4551C93.416 85.4551 93.958 85.5723 94.4678 85.8066C94.9834 86.0352 95.4053 86.3604 95.7334 86.7822C96.0674 87.1982 96.3281 87.7021 96.5156 88.2939C96.7031 88.8857 96.7969 89.5186 96.7969 90.1924C96.7969 91.792 96.4014 93.0283 95.6104 93.9014C94.8193 94.7744 93.8701 95.2109 92.7627 95.2109C91.6611 95.2109 90.7969 94.751 90.1699 93.8311V95ZM90.1523 90.2627C90.1523 91.3818 90.3047 92.1904 90.6094 92.6885C91.1074 93.5029 91.7812 93.9102 92.6309 93.9102C93.3223 93.9102 93.9199 93.6113 94.4238 93.0137C94.9277 92.4102 95.1797 91.5137 95.1797 90.3242C95.1797 89.1055 94.9365 88.2061 94.4502 87.626C93.9697 87.0459 93.3867 86.7559 92.7012 86.7559C92.0098 86.7559 91.4121 87.0576 90.9082 87.6611C90.4043 88.2588 90.1523 89.126 90.1523 90.2627ZM105.12 91.9941L106.755 92.1963C106.497 93.1514 106.02 93.8926 105.322 94.4199C104.625 94.9473 103.734 95.2109 102.65 95.2109C101.285 95.2109 100.201 94.792 99.3984 93.9541C98.6016 93.1104 98.2031 91.9297 98.2031 90.4121C98.2031 88.8418 98.6074 87.623 99.416 86.7559C100.225 85.8887 101.273 85.4551 102.562 85.4551C103.811 85.4551 104.83 85.8799 105.621 86.7295C106.412 87.5791 106.808 88.7744 106.808 90.3154C106.808 90.4092 106.805 90.5498 106.799 90.7373H99.8379C99.8965 91.7627 100.187 92.5479 100.708 93.0928C101.229 93.6377 101.88 93.9102 102.659 93.9102C103.239 93.9102 103.734 93.7578 104.145 93.4531C104.555 93.1484 104.88 92.6621 105.12 91.9941ZM99.9258 89.4365H105.138C105.067 88.6514 104.868 88.0625 104.54 87.6699C104.036 87.0605 103.383 86.7559 102.58 86.7559C101.854 86.7559 101.241 86.999 100.743 87.4854C100.251 87.9717 99.9785 88.6221 99.9258 89.4365ZM108.732 95V85.666H110.156V87.0811C110.52 86.4189 110.854 85.9824 111.158 85.7715C111.469 85.5605 111.809 85.4551 112.178 85.4551C112.711 85.4551 113.253 85.625 113.804 85.9648L113.259 87.4326C112.872 87.2041 112.485 87.0898 112.099 87.0898C111.753 87.0898 111.442 87.1953 111.167 87.4062C110.892 87.6113 110.695 87.8984 110.578 88.2676C110.402 88.8301 110.314 89.4453 110.314 90.1133V95H108.732Z" fill="#212121"/>
</svg>
