<svg width="78" height="101" viewBox="0 0 78 101" fill="none" xmlns="http://www.w3.org/2000/svg">
<rect x="4" width="72" height="72" rx="10" fill="#01395E" fill-opacity="0.05"/>
<path fill-rule="evenodd" clip-rule="evenodd" d="M33.1248 17.375C33.1248 20.3435 35.5313 22.75 38.4998 22.75C41.4683 22.75 43.8748 20.3435 43.8748 17.375C43.8748 14.4065 41.4683 12 38.4998 12C35.5313 12 33.1248 14.4065 33.1248 17.375ZM47.469 58.9645C45.1818 58.0593 43.089 56.4725 41.729 54.7558C40.1497 52.7622 39.0786 49.7149 39.0031 46.4377C38.9917 45.9434 39.0099 45.4569 39.0535 44.981L38.5 44.6121L34.1189 47.5327L32.1313 44.5514L36.7083 41.5V35.2921H40.2917V40.4489C40.6535 39.6806 41.0641 39.0007 41.4859 38.4344C43.1673 36.1774 45.5174 34.5018 48.2055 33.6431C50.8936 32.7843 53.7847 32.7857 56.472 33.647C56.8312 33.7621 57.1843 33.8918 57.5306 34.0355C59.8178 34.9407 61.9106 36.5276 63.2706 38.2443C64.8499 40.2378 65.921 43.2852 65.9965 46.5623C66.072 49.8395 64.8499 52.7719 63.5137 54.5656C61.8323 56.8226 59.4822 58.4982 56.7941 59.3569C54.106 60.2157 51.2149 60.2143 48.5276 59.3531C48.1684 59.2379 47.8153 59.1082 47.469 58.9645ZM49.2208 55.5242C48.5541 55.2699 47.9145 54.9414 47.3147 54.5426C45.7287 53.488 44.4925 51.989 43.7625 50.2353C43.0325 48.4815 42.8415 46.5517 43.2137 44.6899C43.5858 42.8281 44.5044 41.118 45.8532 39.7757C47.202 38.4334 48.9206 37.5193 50.7915 37.149C52.4574 36.8192 54.1776 36.9338 55.7788 37.4758C56.4455 37.7301 57.0851 38.0586 57.6849 38.4574C59.2709 39.512 60.5071 41.011 61.2371 42.7648C61.9671 44.5185 62.1581 46.4483 61.7859 48.3101C61.4138 50.1719 60.4952 51.8821 59.1464 53.2243C57.7976 54.5666 56.079 55.4807 54.2081 55.851C52.5422 56.1808 50.822 56.0662 49.2208 55.5242ZM48.9286 48.6781H50.8575V50.5977C50.8575 51.1068 51.0607 51.595 51.4225 51.955C51.7842 52.315 52.2748 52.5173 52.7864 52.5173C53.298 52.5173 53.7886 52.315 54.1504 51.955C54.5121 51.595 54.7154 51.1068 54.7154 50.5977V48.6781H56.6443C57.1559 48.6781 57.6465 48.4759 58.0083 48.1159C58.37 47.7559 58.5732 47.2677 58.5732 46.7586C58.5732 46.2495 58.37 45.7612 58.0083 45.4013C57.6465 45.0413 57.1559 44.839 56.6443 44.839H54.7154V42.9195C54.7154 42.4104 54.5121 41.9221 54.1504 41.5621C53.7886 41.2022 53.298 40.9999 52.7864 40.9999C52.2748 40.9999 51.7842 41.2022 51.4225 41.5621C51.0607 41.9221 50.8575 42.4104 50.8575 42.9195V44.839H48.9286C48.417 44.839 47.9263 45.0413 47.5646 45.4013C47.2028 45.7612 46.9996 46.2495 46.9996 46.7586C46.9996 47.2677 47.2028 47.7559 47.5646 48.1159C47.9263 48.4759 48.417 48.6781 48.9286 48.6781ZM31.333 28.125C31.3346 26.7 31.9015 25.3338 32.9091 24.3261C33.9167 23.3185 35.2829 22.7517 36.708 22.75H40.2913C41.7163 22.7516 43.0826 23.3184 44.0902 24.3261C45.0979 25.3337 45.6647 26.7 45.6663 28.125V31.7083C45.6663 32.1835 45.4775 32.6392 45.1415 32.9752C44.8055 33.3112 44.3498 33.5 43.8746 33.5H33.1246C32.6495 33.5 32.1937 33.3112 31.8577 32.9752C31.5217 32.6392 31.333 32.1835 31.333 31.7083V28.125ZM18.7913 38.875C18.7913 41.8435 21.1978 44.25 24.1663 44.25H22.375C20.95 44.2517 19.5838 44.8185 18.5761 45.8261C17.5685 46.8338 17.0017 48.2 17 49.625V53.2083C17 53.6835 17.1888 54.1392 17.5248 54.4752C17.8608 54.8112 18.3165 55 18.7917 55H29.5417C30.0168 55 30.4726 54.8112 30.8086 54.4752C31.1446 54.1392 31.3333 53.6835 31.3333 53.2083V49.625C31.3317 48.2 30.7648 46.8338 29.7572 45.8261C28.7495 44.8185 27.3834 44.2517 25.9583 44.25H24.1663C27.1348 44.25 29.5413 41.8435 29.5413 38.875C29.5413 35.9065 27.1348 33.5 24.1663 33.5C21.1978 33.5 18.7913 35.9065 18.7913 38.875Z" fill="#01395E"/>
<path d="M0.424805 95L5.37305 82.1152H7.20996L12.4834 95H10.541L9.03809 91.0977H3.65039L2.23535 95H0.424805ZM4.14258 89.709H8.51074L7.16602 86.1406C6.75586 85.0566 6.45117 84.166 6.25195 83.4688C6.08789 84.2949 5.85645 85.1152 5.55762 85.9297L4.14258 89.709ZM19.6992 95V93.8223C19.1074 94.748 18.2373 95.2109 17.0889 95.2109C16.3447 95.2109 15.6592 95.0059 15.0322 94.5957C14.4111 94.1855 13.9277 93.6143 13.582 92.8818C13.2422 92.1436 13.0723 91.2969 13.0723 90.3418C13.0723 89.4102 13.2275 88.5664 13.5381 87.8105C13.8486 87.0488 14.3145 86.4658 14.9355 86.0615C15.5566 85.6572 16.251 85.4551 17.0186 85.4551C17.5811 85.4551 18.082 85.5752 18.5215 85.8154C18.9609 86.0498 19.3184 86.3574 19.5938 86.7383V82.1152H21.167V95H19.6992ZM14.6982 90.3418C14.6982 91.5371 14.9502 92.4307 15.4541 93.0225C15.958 93.6143 16.5527 93.9102 17.2383 93.9102C17.9297 93.9102 18.5156 93.6289 18.9961 93.0664C19.4824 92.498 19.7256 91.6338 19.7256 90.4736C19.7256 89.1963 19.4795 88.2588 18.9873 87.6611C18.4951 87.0635 17.8887 86.7646 17.168 86.7646C16.4648 86.7646 15.876 87.0518 15.4014 87.626C14.9326 88.2002 14.6982 89.1055 14.6982 90.3418ZM29.7188 95V93.8223C29.127 94.748 28.2568 95.2109 27.1084 95.2109C26.3643 95.2109 25.6787 95.0059 25.0518 94.5957C24.4307 94.1855 23.9473 93.6143 23.6016 92.8818C23.2617 92.1436 23.0918 91.2969 23.0918 90.3418C23.0918 89.4102 23.2471 88.5664 23.5576 87.8105C23.8682 87.0488 24.334 86.4658 24.9551 86.0615C25.5762 85.6572 26.2705 85.4551 27.0381 85.4551C27.6006 85.4551 28.1016 85.5752 28.541 85.8154C28.9805 86.0498 29.3379 86.3574 29.6133 86.7383V82.1152H31.1865V95H29.7188ZM24.7178 90.3418C24.7178 91.5371 24.9697 92.4307 25.4736 93.0225C25.9775 93.6143 26.5723 93.9102 27.2578 93.9102C27.9492 93.9102 28.5352 93.6289 29.0156 93.0664C29.502 92.498 29.7451 91.6338 29.7451 90.4736C29.7451 89.1963 29.499 88.2588 29.0068 87.6611C28.5146 87.0635 27.9082 86.7646 27.1875 86.7646C26.4844 86.7646 25.8955 87.0518 25.4209 87.626C24.9521 88.2002 24.7178 89.1055 24.7178 90.3418ZM42.1465 93.585L42.375 94.9824C41.9297 95.0762 41.5312 95.123 41.1797 95.123C40.6055 95.123 40.1602 95.0322 39.8438 94.8506C39.5273 94.6689 39.3047 94.4316 39.1758 94.1387C39.0469 93.8398 38.9824 93.2158 38.9824 92.2666V86.8965H37.8223V85.666H38.9824V83.3545L40.5557 82.4053V85.666H42.1465V86.8965H40.5557V92.3545C40.5557 92.8057 40.582 93.0957 40.6348 93.2246C40.6934 93.3535 40.7842 93.4561 40.9072 93.5322C41.0361 93.6084 41.2178 93.6465 41.4521 93.6465C41.6279 93.6465 41.8594 93.626 42.1465 93.585ZM50.0918 91.9941L51.7266 92.1963C51.4688 93.1514 50.9912 93.8926 50.2939 94.4199C49.5967 94.9473 48.7061 95.2109 47.6221 95.2109C46.2568 95.2109 45.1729 94.792 44.3701 93.9541C43.5732 93.1104 43.1748 91.9297 43.1748 90.4121C43.1748 88.8418 43.5791 87.623 44.3877 86.7559C45.1963 85.8887 46.2451 85.4551 47.5342 85.4551C48.7822 85.4551 49.8018 85.8799 50.5928 86.7295C51.3838 87.5791 51.7793 88.7744 51.7793 90.3154C51.7793 90.4092 51.7764 90.5498 51.7705 90.7373H44.8096C44.8682 91.7627 45.1582 92.5479 45.6797 93.0928C46.2012 93.6377 46.8516 93.9102 47.6309 93.9102C48.2109 93.9102 48.7061 93.7578 49.1162 93.4531C49.5264 93.1484 49.8516 92.6621 50.0918 91.9941ZM44.8975 89.4365H50.1094C50.0391 88.6514 49.8398 88.0625 49.5117 87.6699C49.0078 87.0605 48.3545 86.7559 47.5518 86.7559C46.8252 86.7559 46.2129 86.999 45.7148 87.4854C45.2227 87.9717 44.9502 88.6221 44.8975 89.4365ZM59.8125 93.8486C59.2266 94.3467 58.6611 94.6982 58.1162 94.9033C57.5771 95.1084 56.9971 95.2109 56.376 95.2109C55.3506 95.2109 54.5625 94.9619 54.0117 94.4639C53.4609 93.96 53.1855 93.3184 53.1855 92.5391C53.1855 92.082 53.2881 91.666 53.4932 91.291C53.7041 90.9102 53.9766 90.6055 54.3105 90.377C54.6504 90.1484 55.0312 89.9756 55.4531 89.8584C55.7637 89.7764 56.2324 89.6973 56.8594 89.6211C58.1367 89.4688 59.0771 89.2871 59.6807 89.0762C59.6865 88.8594 59.6895 88.7217 59.6895 88.6631C59.6895 88.0186 59.54 87.5645 59.2412 87.3008C58.8369 86.9434 58.2363 86.7646 57.4395 86.7646C56.6953 86.7646 56.1445 86.8965 55.7871 87.1602C55.4355 87.418 55.1748 87.8779 55.0049 88.54L53.458 88.3291C53.5986 87.667 53.8301 87.1338 54.1523 86.7295C54.4746 86.3193 54.9404 86.0059 55.5498 85.7891C56.1592 85.5664 56.8652 85.4551 57.668 85.4551C58.4648 85.4551 59.1123 85.5488 59.6104 85.7363C60.1084 85.9238 60.4746 86.1611 60.709 86.4482C60.9434 86.7295 61.1074 87.0869 61.2012 87.5205C61.2539 87.79 61.2803 88.2764 61.2803 88.9795V91.0889C61.2803 92.5596 61.3125 93.4912 61.377 93.8838C61.4473 94.2705 61.582 94.6426 61.7812 95H60.1289C59.9648 94.6719 59.8594 94.2881 59.8125 93.8486ZM59.6807 90.3154C59.1064 90.5498 58.2451 90.749 57.0967 90.9131C56.4463 91.0068 55.9863 91.1123 55.7168 91.2295C55.4473 91.3467 55.2393 91.5195 55.0928 91.748C54.9463 91.9707 54.873 92.2197 54.873 92.4951C54.873 92.917 55.0312 93.2686 55.3477 93.5498C55.6699 93.8311 56.1387 93.9717 56.7539 93.9717C57.3633 93.9717 57.9053 93.8398 58.3799 93.5762C58.8545 93.3066 59.2031 92.9404 59.4258 92.4775C59.5957 92.1201 59.6807 91.5928 59.6807 90.8955V90.3154ZM63.7412 95V85.666H65.1562V86.9756C65.4492 86.5186 65.8389 86.1523 66.3252 85.877C66.8115 85.5957 67.3652 85.4551 67.9863 85.4551C68.6777 85.4551 69.2432 85.5986 69.6826 85.8857C70.1279 86.1729 70.4414 86.5742 70.623 87.0898C71.3613 86 72.3223 85.4551 73.5059 85.4551C74.4316 85.4551 75.1436 85.7129 75.6416 86.2285C76.1396 86.7383 76.3887 87.5264 76.3887 88.5928V95H74.8154V89.1201C74.8154 88.4873 74.7627 88.0332 74.6572 87.7578C74.5576 87.4766 74.373 87.251 74.1035 87.0811C73.834 86.9111 73.5176 86.8262 73.1543 86.8262C72.498 86.8262 71.9531 87.0459 71.5195 87.4854C71.0859 87.9189 70.8691 88.6162 70.8691 89.5771V95H69.2871V88.9355C69.2871 88.2324 69.1582 87.7051 68.9004 87.3535C68.6426 87.002 68.2207 86.8262 67.6348 86.8262C67.1895 86.8262 66.7764 86.9434 66.3955 87.1777C66.0205 87.4121 65.748 87.7549 65.5781 88.2061C65.4082 88.6572 65.3232 89.3076 65.3232 90.1572V95H63.7412Z" fill="#212121"/>
</svg>
