<svg width="12" height="8" viewBox="0 0 12 8" fill="none" xmlns="http://www.w3.org/2000/svg">
<path d="M0.0252088 6.58646C0.0252575 6.36256 0.115325 6.14785 0.275604 5.98956L5.40316 0.923947C5.56342 0.765671 5.78075 0.676757 6.00735 0.676757C6.23396 0.676757 6.45129 0.765671 6.61155 0.923947L11.7391 5.98956C11.8207 6.06744 11.8858 6.1606 11.9306 6.2636C11.9754 6.36661 11.999 6.47739 12 6.58949C12.001 6.7016 11.9793 6.81277 11.9364 6.91653C11.8934 7.02028 11.8299 7.11455 11.7497 7.19382C11.6695 7.27309 11.574 7.33578 11.469 7.37823C11.364 7.42068 11.2515 7.44204 11.138 7.44107C11.0245 7.44009 10.9124 7.4168 10.8081 7.37256C10.7038 7.32831 10.6095 7.26399 10.5307 7.18335L6.00735 2.71802L1.484 7.18673C1.36428 7.30497 1.2117 7.38542 1.04563 7.41788C0.879565 7.45033 0.707478 7.43333 0.551203 7.36902C0.394929 7.30472 0.261507 7.19601 0.167862 7.05668C0.0742162 6.91736 0.024567 6.7537 0.0252088 6.58646Z" fill="#01395E"/>
</svg>
