<svg width="103" height="103" viewBox="0 0 103 103" fill="none" xmlns="http://www.w3.org/2000/svg">
<circle cx="51.5" cy="51.5" r="51.5" fill="#D5D5D5" fill-opacity="0.26"/>
<mask id="mask0" mask-type="alpha" maskUnits="userSpaceOnUse" x="0" y="0" width="103" height="103">
<circle cx="51.5" cy="51.5" r="51.5" fill="#C4C4C4"/>
</mask>
<g mask="url(#mask0)">
<path d="M53.1595 59.8034C66.6163 59.8034 77.5251 48.8946 77.5251 35.4379C77.5251 21.9811 66.6163 11.0723 53.1595 11.0723C39.7028 11.0723 28.7939 21.9811 28.7939 35.4379C28.7939 48.8946 39.7028 59.8034 53.1595 59.8034Z" fill="#D5D5D5"/>
<path d="M53.1597 67.9258C43.4698 67.9365 34.1798 71.7906 27.328 78.6424C20.4762 85.4942 16.6221 94.7842 16.6113 104.474C16.6113 105.551 17.0392 106.584 17.8007 107.346C18.5623 108.107 19.5952 108.535 20.6723 108.535H85.6472C86.7242 108.535 87.7571 108.107 88.5187 107.346C89.2803 106.584 89.7081 105.551 89.7081 104.474C89.6973 94.7842 85.8433 85.4942 78.9915 78.6424C72.1396 71.7906 62.8496 67.9365 53.1597 67.9258Z" fill="#D5D5D5"/>
</g>
</svg>
