<svg width="17" height="18" viewBox="0 0 17 18" fill="none" xmlns="http://www.w3.org/2000/svg">
<path fill-rule="evenodd" clip-rule="evenodd" d="M12.75 1.41667H13.4583C14.3973 1.41779 15.2975 1.79129 15.9614 2.45524C16.6254 3.11919 16.9989 4.01937 17 4.95833V5.66667H0V4.95833C0.00112473 4.01937 0.374625 3.11919 1.03857 2.45524C1.70252 1.79129 2.6027 1.41779 3.54167 1.41667H4.25V0.708333C4.25 0.520472 4.32463 0.340304 4.45747 0.207466C4.5903 0.0746278 4.77047 0 4.95833 0C5.14619 0 5.32636 0.0746278 5.4592 0.207466C5.59204 0.340304 5.66667 0.520472 5.66667 0.708333V1.41667H11.3333V0.708333C11.3333 0.520472 11.408 0.340304 11.5408 0.207466C11.6736 0.0746278 11.8538 0 12.0417 0C12.2295 0 12.4097 0.0746278 12.5425 0.207466C12.6754 0.340304 12.75 0.520472 12.75 0.708333V1.41667ZM1.03857 15.967C0.374625 15.303 0.00112473 14.4028 0 13.4639V7.08887H17V13.4639C16.9989 14.4028 16.6254 15.303 15.9614 15.967C15.2975 16.6309 14.3973 17.0044 13.4583 17.0055H3.54167C2.6027 17.0044 1.70252 16.6309 1.03857 15.967ZM12.632 10.4554C12.4572 10.3387 12.2518 10.2764 12.0417 10.2764C11.7599 10.2764 11.4896 10.3883 11.2904 10.5876C11.0911 10.7868 10.9792 11.0571 10.9792 11.3389C10.9792 11.549 11.0415 11.7544 11.1582 11.9292C11.275 12.1039 11.4409 12.2401 11.6351 12.3205C11.8292 12.4009 12.0428 12.4219 12.2489 12.381C12.4551 12.34 12.6444 12.2388 12.793 12.0902C12.9416 11.9416 13.0428 11.7523 13.0838 11.5462C13.1247 11.34 13.1037 11.1264 13.0233 10.9323C12.9429 10.7381 12.8067 10.5722 12.632 10.4554ZM9.09029 10.4554C8.91557 10.3387 8.71014 10.2764 8.5 10.2764C8.21821 10.2764 7.94796 10.3883 7.7487 10.5876C7.54944 10.7868 7.4375 11.0571 7.4375 11.3389C7.4375 11.549 7.49981 11.7544 7.61656 11.9292C7.73331 12.1039 7.89925 12.2401 8.0934 12.3205C8.28755 12.4009 8.50118 12.4219 8.70728 12.381C8.91339 12.34 9.10271 12.2388 9.2513 12.0902C9.39989 11.9416 9.50109 11.7523 9.54208 11.5462C9.58308 11.34 9.56204 11.1264 9.48162 10.9323C9.4012 10.7381 9.26502 10.5722 9.09029 10.4554ZM5.54863 10.4554C5.3739 10.3387 5.16848 10.2764 4.95833 10.2764C4.67654 10.2764 4.40629 10.3883 4.20703 10.5876C4.00777 10.7868 3.89583 11.0571 3.89583 11.3389C3.89583 11.549 3.95815 11.7544 4.0749 11.9292C4.19165 12.1039 4.35759 12.2401 4.55173 12.3205C4.74588 12.4009 4.95951 12.4219 5.16562 12.381C5.37172 12.34 5.56104 12.2388 5.70963 12.0902C5.85823 11.9416 5.95942 11.7523 6.00042 11.5462C6.04141 11.34 6.02037 11.1264 5.93996 10.9323C5.85954 10.7381 5.72335 10.5722 5.54863 10.4554Z" fill="#D5D5D5"/>
</svg>
