<svg width="26" height="26" viewBox="0 0 26 26" fill="none" xmlns="http://www.w3.org/2000/svg">
<path d="M24.9154 17.332C24.6281 17.332 24.3525 17.4462 24.1494 17.6493C23.9462 17.8525 23.8321 18.128 23.8321 18.4154V20.582C23.8321 21.444 23.4897 22.2706 22.8802 22.8801C22.2707 23.4896 21.444 23.832 20.5821 23.832H18.4154C18.1281 23.832 17.8525 23.9462 17.6493 24.1493C17.4462 24.3525 17.332 24.628 17.332 24.9154C17.332 25.2027 17.4462 25.4782 17.6493 25.6814C17.8525 25.8846 18.1281 25.9987 18.4154 25.9987H20.5821C22.0181 25.997 23.3949 25.4257 24.4103 24.4103C25.4258 23.3948 25.997 22.0181 25.9988 20.582V18.4154C25.9988 18.128 25.8846 17.8525 25.6815 17.6493C25.4783 17.4462 25.2027 17.332 24.9154 17.332Z" fill="#747474"/>
<path d="M1.08333 8.66667C1.37065 8.66667 1.6462 8.55253 1.84936 8.34937C2.05252 8.1462 2.16666 7.87065 2.16666 7.58333V5.41667C2.16666 4.55471 2.50907 3.72806 3.11856 3.11857C3.72805 2.50908 4.5547 2.16667 5.41665 2.16667H7.5833C7.87062 2.16667 8.14617 2.05253 8.34933 1.84937C8.5525 1.6462 8.66663 1.37065 8.66663 1.08333C8.66663 0.796016 8.5525 0.520465 8.34933 0.317301C8.14617 0.114137 7.87062 0 7.5833 0L5.41665 0C3.98059 0.00172018 2.60384 0.572955 1.5884 1.5884C0.572953 2.60385 0.00172017 3.98061 0 5.41667L0 7.58333C0 7.87065 0.114136 8.1462 0.3173 8.34937C0.520463 8.55253 0.796012 8.66667 1.08333 8.66667Z" fill="#747474"/>
<path d="M7.5833 23.832H5.41665C4.5547 23.832 3.72805 23.4896 3.11856 22.8801C2.50907 22.2706 2.16666 21.444 2.16666 20.582V18.4154C2.16666 18.128 2.05252 17.8525 1.84936 17.6493C1.6462 17.4462 1.37065 17.332 1.08333 17.332C0.796012 17.332 0.520463 17.4462 0.3173 17.6493C0.114136 17.8525 0 18.128 0 18.4154L0 20.582C0.00172017 22.0181 0.572953 23.3948 1.5884 24.4103C2.60384 25.4257 3.98059 25.997 5.41665 25.9987H7.5833C7.87062 25.9987 8.14617 25.8846 8.34933 25.6814C8.5525 25.4782 8.66663 25.2027 8.66663 24.9154C8.66663 24.628 8.5525 24.3525 8.34933 24.1493C8.14617 23.9462 7.87062 23.832 7.5833 23.832Z" fill="#747474"/>
<path d="M20.5821 0H18.4154C18.1281 0 17.8525 0.114137 17.6493 0.317301C17.4462 0.520465 17.332 0.796016 17.332 1.08333C17.332 1.37065 17.4462 1.6462 17.6493 1.84937C17.8525 2.05253 18.1281 2.16667 18.4154 2.16667H20.5821C21.444 2.16667 22.2707 2.50908 22.8802 3.11857C23.4897 3.72806 23.8321 4.55471 23.8321 5.41667V7.58333C23.8321 7.87065 23.9462 8.1462 24.1494 8.34937C24.3525 8.55253 24.6281 8.66667 24.9154 8.66667C25.2027 8.66667 25.4783 8.55253 25.6815 8.34937C25.8846 8.1462 25.9988 7.87065 25.9988 7.58333V5.41667C25.997 3.98061 25.4258 2.60385 24.4103 1.5884C23.3949 0.572955 22.0181 0.00172018 20.5821 0V0Z" fill="#747474"/>
<path d="M13.0013 11.9167C15.3945 11.9167 17.3346 9.97657 17.3346 7.58333C17.3346 5.1901 15.3945 3.25 13.0013 3.25C10.6081 3.25 8.66797 5.1901 8.66797 7.58333C8.66797 9.97657 10.6081 11.9167 13.0013 11.9167Z" fill="#747474"/>
<path d="M11.918 14.082C10.1946 14.0838 8.5423 14.7691 7.32368 15.9877C6.10506 17.2064 5.41969 18.8587 5.41797 20.582C5.41797 20.8693 5.53211 21.1449 5.73527 21.3481C5.93844 21.5512 6.21399 21.6654 6.50131 21.6654H19.5014C19.7887 21.6654 20.0642 21.5512 20.2674 21.3481C20.4706 21.1449 20.5847 20.8693 20.5847 20.582C20.583 18.8587 19.8976 17.2064 18.679 15.9877C17.4604 14.7691 15.8081 14.0838 14.0847 14.082H11.918Z" fill="#747474"/>
</svg>
