<svg width="13" height="9" viewBox="0 0 13 9" fill="none" xmlns="http://www.w3.org/2000/svg">
<path d="M12.7694 1.3316L5.51693 8.54327C5.37138 8.68807 5.19856 8.80293 5.00835 8.8813C4.81814 8.95967 4.61426 9 4.40837 9C4.20248 9 3.99861 8.95967 3.8084 8.8813C3.61818 8.80293 3.44536 8.68807 3.29981 8.54327L0.229997 5.49152C0.0827324 5.34508 -3.10337e-09 5.14648 0 4.93938C3.10337e-09 4.73229 0.0827324 4.53368 0.229997 4.38725C0.377262 4.24081 0.576995 4.15855 0.785259 4.15855C0.993522 4.15855 1.19326 4.24081 1.34052 4.38725L4.40955 7.439L11.6628 0.227326C11.7357 0.155074 11.8223 0.0978112 11.9174 0.0588068C12.0126 0.0198023 12.1146 -0.000179694 12.2175 1.21752e-06C12.3204 0.000182129 12.4223 0.0205224 12.5174 0.0598611C12.6124 0.0991999 12.6987 0.156766 12.7714 0.229274C12.844 0.301782 12.9016 0.38781 12.9409 0.482448C12.9801 0.577086 13.0002 0.678479 13 0.78084C12.9998 0.8832 12.9794 0.984523 12.9398 1.07902C12.9002 1.17352 12.8423 1.25935 12.7694 1.3316Z" fill="white"/>
</svg>
