
<svg width="17" height="17" viewBox="0 0 17 17" fill="none" xmlns="http://www.w3.org/2000/svg">
    <path d="M13.4583 0H3.54167C2.6027 0.00112473 1.70252 0.374625 1.03857 1.03857C0.374625 1.70252 0.00112473 2.6027 0 3.54167L0 13.4583C0.00112473 14.3973 0.374625 15.2975 1.03857 15.9614C1.70252 16.6254 2.6027 16.9989 3.54167 17H13.4583C14.3973 16.9989 15.2975 16.6254 15.9614 15.9614C16.6254 15.2975 16.9989 14.3973 17 13.4583V3.54167C16.9989 2.6027 16.6254 1.70252 15.9614 1.03857C15.2975 0.374625 14.3973 0.00112473 13.4583 0V0ZM14.1667 5.72263L7.61175 12.2775C7.48019 12.4092 7.32399 12.5136 7.15208 12.5848C6.98016 12.656 6.7959 12.6927 6.60981 12.6927C6.42372 12.6927 6.23946 12.656 6.06754 12.5848C5.89563 12.5136 5.73943 12.4092 5.60787 12.2775L2.83333 9.50371C2.70023 9.37061 2.62546 9.19009 2.62546 9.00185C2.62546 8.81362 2.70023 8.6331 2.83333 8.5C2.96643 8.3669 3.14696 8.29212 3.33519 8.29212C3.52342 8.29212 3.70394 8.3669 3.83704 8.5L6.61088 11.2738L13.1665 4.71892C13.2324 4.65324 13.3106 4.6012 13.3966 4.56574C13.4826 4.53029 13.5748 4.51213 13.6678 4.51229C13.7609 4.51246 13.853 4.53095 13.9389 4.5667C14.0248 4.60246 14.1028 4.65478 14.1684 4.72069C14.2341 4.78659 14.2862 4.86479 14.3216 4.95081C14.3571 5.03682 14.3752 5.12898 14.3751 5.22202C14.3749 5.31506 14.3564 5.40716 14.3207 5.49305C14.2849 5.57894 14.2326 5.65695 14.1667 5.72263Z" fill="#01395E"/>
</svg>
