<svg width="17" height="20" viewBox="0 0 17 20" fill="none" xmlns="http://www.w3.org/2000/svg">
<path d="M13.8386 9.24127C14.0975 9.5034 14.2429 9.85888 14.2429 10.2295C14.2429 10.6002 14.0975 10.9556 13.8386 11.2178L7.50706 17.6281C7.27151 17.8941 7.14548 18.2412 7.15485 18.5983C7.16422 18.9554 7.30827 19.2952 7.55744 19.5482C7.80661 19.8011 8.14198 19.9479 8.49471 19.9584C8.84743 19.9689 9.19074 19.8423 9.45416 19.6046L15.7871 13.1943C16.5637 12.4079 17 11.3415 17 10.2295C17 9.11758 16.5637 8.05116 15.7871 7.26478L9.45416 0.854434C9.19372 0.599813 8.84489 0.458923 8.48282 0.462108C8.12075 0.465291 7.77439 0.612298 7.51836 0.871463C7.26233 1.13063 7.1171 1.48122 7.11395 1.84772C7.1108 2.21422 7.24999 2.56731 7.50154 2.83094L13.8386 9.24127Z" fill="#01395E"/>
<path d="M1.39172 0.503081C1.75626 0.50316 2.10584 0.649806 2.36357 0.910766L10.6112 9.25926C10.8689 9.52019 11.0137 9.87404 11.0137 10.243C11.0137 10.6119 10.8689 10.9658 10.6112 11.2267L2.36356 19.5752C2.23676 19.7081 2.08508 19.8141 1.91737 19.887C1.74967 19.96 1.56929 19.9983 1.38677 19.9999C1.20425 20.0016 1.02324 19.9663 0.85431 19.8964C0.685376 19.8264 0.531898 19.7231 0.402832 19.5925C0.273767 19.4618 0.171699 19.3065 0.102582 19.1355C0.0334655 18.9645 -0.00131596 18.7812 0.000270013 18.5965C0.00185599 18.4117 0.039777 18.2292 0.111819 18.0594C0.183861 17.8896 0.288582 17.7361 0.419872 17.6078L7.69017 10.243L0.414372 2.87823C0.221855 2.6833 0.0908695 2.43489 0.0380284 2.1645C-0.0148128 1.89411 0.0128714 1.61393 0.117571 1.35949C0.22227 1.10505 0.399265 0.887815 0.626108 0.735343C0.852952 0.582873 1.11942 0.502036 1.39172 0.503081Z" fill="#01395E"/>
</svg>
