
<svg width="14" height="14" viewBox="0 0 14 14" fill="none" xmlns="http://www.w3.org/2000/svg">
    <g clip-path="url(#clip0)">
        <path d="M11.0837 1.16603H5.80807C5.3637 1.16466 4.92497 1.26553 4.52582 1.46086C4.12668 1.65618 3.77782 1.94072 3.50624 2.29245L0.122905 6.6412C0.043248 6.7436 0 6.86963 0 6.99936C0 7.1291 0.043248 7.25513 0.122905 7.35753L3.50624 11.7063C3.77782 12.058 4.12668 12.3425 4.52582 12.5379C4.92497 12.7332 5.3637 12.8341 5.80807 12.8327H11.0837C11.857 12.8318 12.5983 12.5242 13.1451 11.9774C13.6919 11.4306 13.9995 10.6893 14.0004 9.91603V4.0827C13.9995 3.30943 13.6919 2.5681 13.1451 2.02132C12.5983 1.47454 11.857 1.16696 11.0837 1.16603ZM10.3295 8.33695C10.3852 8.39076 10.4296 8.45512 10.4602 8.52629C10.4908 8.59746 10.5069 8.67401 10.5076 8.75146C10.5082 8.82892 10.4935 8.90573 10.4641 8.97742C10.4348 9.04911 10.3915 9.11424 10.3367 9.16901C10.2819 9.22378 10.2168 9.26709 10.1451 9.29642C10.0734 9.32576 9.99663 9.34052 9.91917 9.33984C9.84172 9.33917 9.76517 9.32308 9.694 9.29251C9.62283 9.26193 9.55847 9.21749 9.50465 9.16178L8.16707 7.8242L6.82949 9.16178C6.71947 9.26804 6.57212 9.32683 6.41917 9.32551C6.26622 9.32418 6.11992 9.26283 6.01176 9.15467C5.90361 9.04652 5.84226 8.90021 5.84093 8.74726C5.8396 8.59432 5.8984 8.44696 6.00466 8.33695L7.34224 6.99936L6.00466 5.66178C5.8984 5.55176 5.8396 5.40441 5.84093 5.25146C5.84226 5.09851 5.90361 4.95221 6.01176 4.84405C6.11992 4.7359 6.26622 4.67455 6.41917 4.67322C6.57212 4.67189 6.71947 4.73069 6.82949 4.83695L8.16707 6.17453L9.50465 4.83695C9.61467 4.73069 9.76202 4.67189 9.91497 4.67322C10.0679 4.67455 10.2142 4.7359 10.3224 4.84405C10.4305 4.95221 10.4919 5.09851 10.4932 5.25146C10.4945 5.40441 10.4357 5.55176 10.3295 5.66178L8.99191 6.99936L10.3295 8.33695Z" fill="#01395E"/>
    </g>
    <defs>
        <clipPath id="clip0">
            <rect width="14" height="14" fill="white"/>
        </clipPath>
    </defs>
</svg>
