
<svg width="24" height="24" viewBox="0 0 24 24" fill="none" xmlns="http://www.w3.org/2000/svg">
    <path fill-rule="evenodd" clip-rule="evenodd" d="M0 5C0 2.23858 2.23858 0 5 0H12H19C21.7614 0 24 2.23858 24 5V11.9955C24 11.997 24 11.9985 24 12C24 12.0039 24 12.0078 24 12.0117V19C24 21.7614 21.7614 24 19 24H12.01C12.0033 24 11.9966 24 11.9899 24H5C2.23858 24 0 21.7614 0 19V12.0001V5ZM16.2343 14.9116C16.1789 14.7887 16.0992 14.6783 16 14.587L13.414 12L16 9.413C16.0992 9.32171 16.1789 9.2113 16.2343 9.08841C16.2898 8.96553 16.3198 8.83271 16.3226 8.69793C16.3254 8.56315 16.3009 8.42919 16.2506 8.30412C16.2003 8.17904 16.1252 8.06543 16.0299 7.97011C15.9346 7.87478 15.821 7.79972 15.6959 7.74942C15.5708 7.69912 15.4369 7.67463 15.3021 7.67743C15.1673 7.68022 15.0345 7.71023 14.9116 7.76567C14.7887 7.8211 14.6783 7.90081 14.587 8L12 10.586L9.41401 8C9.2254 7.81784 8.9728 7.71705 8.7106 7.71933C8.44841 7.7216 8.1976 7.82677 8.01219 8.01218C7.82678 8.19759 7.72161 8.4484 7.71933 8.7106C7.71705 8.9728 7.81785 9.2254 8.00001 9.414L10.586 12L8.00001 14.586C7.81785 14.7746 7.71705 15.0272 7.71933 15.2894C7.72161 15.5516 7.82678 15.8024 8.01219 15.9878C8.1976 16.1732 8.44841 16.2784 8.7106 16.2807C8.9728 16.283 9.2254 16.1822 9.41401 16L12 13.414L14.587 16C14.6783 16.0992 14.7887 16.1789 14.9116 16.2343C15.0345 16.2898 15.1673 16.3198 15.3021 16.3226C15.4369 16.3254 15.5708 16.3009 15.6959 16.2506C15.821 16.2003 15.9346 16.1252 16.0299 16.0299C16.1252 15.9346 16.2003 15.821 16.2506 15.6959C16.3009 15.5708 16.3254 15.4369 16.3226 15.3021C16.3198 15.1673 16.2898 15.0345 16.2343 14.9116Z" fill="#D5D5D5"/>
</svg>
