<svg width="44" height="44" viewBox="0 0 44 44" fill="none" xmlns="http://www.w3.org/2000/svg">
<g clip-path="url(#clip0)">
<path d="M30.9375 40.2188V40.9062H13.0625V40.2188C13.0625 39.4556 13.6744 38.8438 14.4375 38.8438H15.8125H28.1875H29.5625C30.3256 38.8438 30.9375 39.4556 30.9375 40.2188Z" fill="#E6E9ED"/>
<path d="M26.8125 33.3438L28.1875 38.8438H15.8125L17.1875 33.3438H26.8125Z" fill="#CCD1D9"/>
<path d="M41.25 5.15625V30.5938H2.75V5.15625H22H41.25Z" fill="#5D9CEC"/>
<path d="M43.3125 31.9688C43.3125 32.725 42.6937 33.3438 41.9375 33.3438H26.8125H17.1875H2.0625C1.30625 33.3438 0.6875 32.725 0.6875 31.9688V30.5938H0.721875H2.75H41.25H43.3125V31.9688Z" fill="#E6E9ED"/>
<path d="M41.9375 3.09375H22H2.0625C1.30625 3.09375 0.6875 3.7125 0.6875 4.46875V30.5938H0.721875H2.75V5.15625H22H41.25V30.5938H43.3125V4.46875C43.3125 3.7125 42.6937 3.09375 41.9375 3.09375Z" fill="#656D78"/>
<path d="M24.7507 30.5938H20.6243L17.8716 5.15625H21.998L24.7507 30.5938Z" fill="#87BCF4"/>
<path d="M26.1284 30.5938H25.4437L22.6909 5.15625H23.3757L26.1284 30.5938Z" fill="#87BCF4"/>
<path d="M22.0213 32.6553C21.6411 32.6553 21.3303 32.348 21.3303 31.9678C21.3303 31.5876 21.6342 31.2803 22.0137 31.2803H22.0213C22.4008 31.2803 22.7088 31.5876 22.7088 31.9678C22.7088 32.348 22.4008 32.6553 22.0213 32.6553Z" fill="black"/>
<path d="M43.3134 31.2803H0.720703C0.340516 31.2803 0.0332031 30.973 0.0332031 30.5928C0.0332031 30.2126 0.340516 29.9053 0.720703 29.9053H43.3134C43.6936 29.9053 44.0009 30.2126 44.0009 30.5928C44.0009 30.973 43.6936 31.2803 43.3134 31.2803Z" fill="black"/>
<path d="M41.9375 34.0309H2.0625C0.925375 34.0309 0 33.1055 0 31.9684V4.46973C0 3.3326 0.925375 2.40723 2.0625 2.40723H41.9375C43.0746 2.40723 44 3.3326 44 4.46973V31.9684C44 33.1055 43.0746 34.0309 41.9375 34.0309ZM2.0625 3.78223C1.683 3.78223 1.375 4.09023 1.375 4.46973V31.9684C1.375 32.3479 1.683 32.6559 2.0625 32.6559H41.9375C42.317 32.6559 42.625 32.3479 42.625 31.9684V4.46973C42.625 4.09023 42.317 3.78223 41.9375 3.78223H2.0625Z" fill="black"/>
<path d="M15.8125 39.5306C15.7575 39.5306 15.7011 39.5237 15.6455 39.51C15.277 39.4179 15.0528 39.0445 15.145 38.6767L16.52 33.1767C16.6114 32.8075 16.9833 32.5834 17.3532 32.6762C17.7217 32.7684 17.9458 33.1417 17.8537 33.5095L16.4787 39.0095C16.4003 39.3223 16.1205 39.5306 15.8125 39.5306Z" fill="black"/>
<path d="M28.1869 39.5307C27.8789 39.5307 27.5991 39.3223 27.5207 39.0095L26.1457 33.5095C26.0529 33.1417 26.277 32.7684 26.6462 32.6763C27.0133 32.5835 27.3873 32.8069 27.4795 33.1768L28.8545 38.6768C28.9473 39.0446 28.7232 39.4179 28.354 39.51C28.2983 39.5238 28.2419 39.5307 28.1869 39.5307Z" fill="black"/>
<path d="M13.0625 40.9053C12.6823 40.9053 12.375 40.598 12.375 40.2178C12.375 39.0806 13.3004 38.1553 14.4375 38.1553C14.8177 38.1553 15.125 38.4626 15.125 38.8428C15.125 39.223 14.8177 39.5303 14.4375 39.5303C14.058 39.5303 13.75 39.8383 13.75 40.2178C13.75 40.598 13.4427 40.9053 13.0625 40.9053Z" fill="black"/>
<path d="M30.9375 40.9053C30.5573 40.9053 30.25 40.598 30.25 40.2178C30.25 39.8383 29.942 39.5303 29.5625 39.5303C29.1823 39.5303 28.875 39.223 28.875 38.8428C28.875 38.4626 29.1823 38.1553 29.5625 38.1553C30.6996 38.1553 31.625 39.0806 31.625 40.2178C31.625 40.598 31.3177 40.9053 30.9375 40.9053Z" fill="black"/>
<path d="M29.5625 39.5303H14.4375C14.0573 39.5303 13.75 39.223 13.75 38.8428C13.75 38.4626 14.0573 38.1553 14.4375 38.1553H29.5625C29.9427 38.1553 30.25 38.4626 30.25 38.8428C30.25 39.223 29.9427 39.5303 29.5625 39.5303Z" fill="black"/>
<path d="M13.0625 41.5928C12.6823 41.5928 12.375 41.2855 12.375 40.9053V40.2178C12.375 39.8376 12.6823 39.5303 13.0625 39.5303C13.4427 39.5303 13.75 39.8376 13.75 40.2178V40.9053C13.75 41.2855 13.4427 41.5928 13.0625 41.5928Z" fill="black"/>
<path d="M30.9375 41.5928H13.0625C12.6823 41.5928 12.375 41.2855 12.375 40.9053C12.375 40.5251 12.6823 40.2178 13.0625 40.2178H30.9375C31.3177 40.2178 31.625 40.5251 31.625 40.9053C31.625 41.2855 31.3177 41.5928 30.9375 41.5928Z" fill="black"/>
<path d="M30.9375 41.5928C30.5573 41.5928 30.25 41.2855 30.25 40.9053V40.2178C30.25 39.8376 30.5573 39.5303 30.9375 39.5303C31.3177 39.5303 31.625 39.8376 31.625 40.2178V40.9053C31.625 41.2855 31.3177 41.5928 30.9375 41.5928Z" fill="black"/>
<path d="M41.2486 5.84473H2.75269C2.3725 5.84473 2.06519 5.53742 2.06519 5.15723C2.06519 4.77704 2.3725 4.46973 2.75269 4.46973H41.2486C41.6287 4.46973 41.9361 4.77704 41.9361 5.15723C41.9361 5.53742 41.6287 5.84473 41.2486 5.84473Z" fill="black"/>
<path d="M22 5.84415C21.6198 5.84415 21.3125 5.53683 21.3125 5.15665V4.46777C21.3125 4.08759 21.6198 3.78027 22 3.78027C22.3802 3.78027 22.6875 4.08759 22.6875 4.46777V5.15665C22.6875 5.53683 22.3802 5.84415 22 5.84415Z" fill="black"/>
<path d="M2.75268 31.2809C2.3725 31.2809 2.06519 30.9735 2.06519 30.5934V5.15723C2.06519 4.77704 2.3725 4.46973 2.75268 4.46973C3.13287 4.46973 3.44018 4.77704 3.44018 5.15723V30.5934C3.44018 30.9735 3.13287 31.2809 2.75268 31.2809Z" fill="black"/>
<path d="M41.2473 31.2809C40.8671 31.2809 40.5598 30.9735 40.5598 30.5934V5.15723C40.5598 4.77704 40.8671 4.46973 41.2473 4.46973C41.6275 4.46973 41.9348 4.77704 41.9348 5.15723V30.5934C41.9348 30.9735 41.6275 31.2809 41.2473 31.2809Z" fill="black"/>
</g>
<defs>
<clipPath id="clip0">
<rect width="44" height="44" fill="white"/>
</clipPath>
</defs>
</svg>
