
<svg width="12" height="14" viewBox="0 0 12 14" fill="none" xmlns="http://www.w3.org/2000/svg">
    <path d="M11.2513 2.33333H9.44297C9.30758 1.67499 8.94936 1.08345 8.4287 0.658419C7.90803 0.233386 7.25676 0.000848473 6.58464 0L5.41797 0C4.74585 0.000848473 4.09457 0.233386 3.57391 0.658419C3.05324 1.08345 2.69503 1.67499 2.55964 2.33333H0.751302C0.596592 2.33333 0.448219 2.39479 0.338823 2.50419C0.229427 2.61358 0.167969 2.76196 0.167969 2.91667C0.167969 3.07138 0.229427 3.21975 0.338823 3.32915C0.448219 3.43854 0.596592 3.5 0.751302 3.5H1.33464V11.0833C1.33556 11.8566 1.64315 12.5979 2.18993 13.1447C2.73671 13.6915 3.47804 13.9991 4.2513 14H7.7513C8.52457 13.9991 9.26589 13.6915 9.81268 13.1447C10.3595 12.5979 10.667 11.8566 10.668 11.0833V3.5H11.2513C11.406 3.5 11.5544 3.43854 11.6638 3.32915C11.7732 3.21975 11.8346 3.07138 11.8346 2.91667C11.8346 2.76196 11.7732 2.61358 11.6638 2.50419C11.5544 2.39479 11.406 2.33333 11.2513 2.33333ZM5.41797 9.91667C5.41797 10.0714 5.35651 10.2197 5.24711 10.3291C5.13772 10.4385 4.98935 10.5 4.83464 10.5C4.67993 10.5 4.53155 10.4385 4.42216 10.3291C4.31276 10.2197 4.2513 10.0714 4.2513 9.91667V6.41667C4.2513 6.26196 4.31276 6.11358 4.42216 6.00419C4.53155 5.89479 4.67993 5.83333 4.83464 5.83333C4.98935 5.83333 5.13772 5.89479 5.24711 6.00419C5.35651 6.11358 5.41797 6.26196 5.41797 6.41667V9.91667ZM7.7513 9.91667C7.7513 10.0714 7.68984 10.2197 7.58045 10.3291C7.47105 10.4385 7.32268 10.5 7.16797 10.5C7.01326 10.5 6.86489 10.4385 6.75549 10.3291C6.64609 10.2197 6.58464 10.0714 6.58464 9.91667V6.41667C6.58464 6.26196 6.64609 6.11358 6.75549 6.00419C6.86489 5.89479 7.01326 5.83333 7.16797 5.83333C7.32268 5.83333 7.47105 5.89479 7.58045 6.00419C7.68984 6.11358 7.7513 6.26196 7.7513 6.41667V9.91667ZM3.76772 2.33333C3.88881 1.99237 4.11241 1.69721 4.40786 1.48834C4.70331 1.27947 5.05614 1.16711 5.41797 1.16667H6.58464C6.94646 1.16711 7.29929 1.27947 7.59474 1.48834C7.89019 1.69721 8.1138 1.99237 8.23489 2.33333H3.76772Z" fill="#01395E"/>
</svg>
