<svg width="72" height="93" viewBox="0 0 72 93" fill="none" xmlns="http://www.w3.org/2000/svg">
<path d="M65.4242 15.503V89.6566C65.4242 90.7503 64.5382 91.6364 63.4445 91.6364H10.1945C9.10089 91.6364 8.21484 90.7503 8.21484 89.6566V30.5054L25.1968 13.5234H63.4445C64.5382 13.5233 65.4242 14.4093 65.4242 15.503Z" fill="#F8F3F1"/>
<path d="M52.2642 15.4061C52.2642 18.4201 49.8218 20.8624 46.8079 20.8624C43.7939 20.8624 41.3516 18.4201 41.3516 15.4061C41.3516 14.7437 41.4702 14.1109 41.6838 13.5234H51.9319C52.1456 14.1109 52.2642 14.7437 52.2642 15.4061Z" fill="#EFE2DD"/>
<path d="M8.21484 35.7646V30.5059L25.1973 13.5234V33.7849C25.1973 34.8784 24.3109 35.7646 23.2176 35.7646H8.21484Z" fill="#EFE2DD"/>
<path d="M63.4449 13.5234H56.3652C57.458 13.5234 58.3449 14.4104 58.3449 15.5031V89.6559C58.3449 90.7487 57.458 91.6356 56.3652 91.6356H63.4449C64.5376 91.6356 65.4246 90.7487 65.4246 89.6559V15.5031C65.4246 14.4104 64.5376 13.5234 63.4449 13.5234Z" fill="#EFE2DD"/>
<path d="M8.21484 30.5059L25.1973 13.5234V28.5261C25.1973 29.6195 24.3109 30.5058 23.2176 30.5058H8.21484V30.5059Z" fill="#01395E"/>
<path d="M36.8193 74.8026C45.4255 74.8026 52.4022 67.8259 52.4022 59.2197C52.4022 50.6134 45.4255 43.6367 36.8193 43.6367C28.213 43.6367 21.2363 50.6134 21.2363 59.2197C21.2363 67.8259 28.213 74.8026 36.8193 74.8026Z" fill="#DFEA32"/>
<path d="M52.4029 59.2196C52.4029 67.8262 45.4257 74.8034 36.821 74.8034C35.775 74.8034 34.7525 74.7006 33.7637 74.5028C40.9049 73.0809 46.2862 66.7782 46.2862 59.2196C46.2862 51.6609 40.9051 45.3602 33.7637 43.9383C34.7525 43.7405 35.775 43.6377 36.821 43.6377C45.4257 43.6377 52.4029 50.6129 52.4029 59.2196Z" fill="#C7D30A"/>
<path d="M5.28581 24.1751C7.45216 24.1751 9.20834 22.419 9.20834 20.2526C9.20834 18.0863 7.45216 16.3301 5.28581 16.3301C3.11946 16.3301 1.36328 18.0863 1.36328 20.2526C1.36328 22.419 3.11946 24.1751 5.28581 24.1751Z" fill="#76ADD1"/>
<path d="M9.20873 20.2521C9.20873 22.4192 7.45209 24.1759 5.28657 24.1759C4.56055 24.1759 3.8794 23.9786 3.29688 23.6328C4.83664 23.2778 5.98388 21.8994 5.98388 20.2521C5.98388 18.6064 4.83846 17.2263 3.29869 16.8714C3.88121 16.5272 4.56055 16.3301 5.28657 16.3301C7.4519 16.3301 9.20873 18.0867 9.20873 20.2521Z" fill="#296C99"/>
<path d="M46.808 16.6591C49.8216 16.6591 52.2645 14.2161 52.2645 11.2026C52.2645 8.18905 49.8216 5.74609 46.808 5.74609C43.7945 5.74609 41.3516 8.18905 41.3516 11.2026C41.3516 14.2161 43.7945 16.6591 46.808 16.6591Z" fill="#296C99"/>
<path d="M52.2646 11.202C52.2646 14.2167 49.821 16.6603 46.8089 16.6603C45.7989 16.6603 44.8515 16.3861 44.041 15.9047C46.1829 15.411 47.7788 13.4934 47.7788 11.202C47.7788 8.913 46.1855 6.99288 44.0436 6.49918C44.854 6.02037 45.7989 5.74609 46.8089 5.74609C49.821 5.74609 52.2646 8.18989 52.2646 11.202Z" fill="#01395E"/>
<path d="M65.423 31.5576C64.6705 31.5576 64.0607 32.1676 64.0607 32.9199V89.6586C64.0607 89.9992 63.7837 90.276 63.4433 90.276H10.1936C9.85317 90.276 9.57617 89.999 9.57617 89.6586V74.3923C9.57617 73.6399 8.96622 73.03 8.21387 73.03C7.46151 73.03 6.85156 73.6399 6.85156 74.3923V89.6586C6.85156 91.5016 8.35082 93.0006 10.1936 93.0006H63.4433C65.2863 93.0006 66.7853 91.5014 66.7853 89.6586V32.9199C66.7853 32.1674 66.1756 31.5576 65.423 31.5576Z" fill="black"/>
<path d="M63.4433 12.1625H53.5563C53.6008 11.8487 53.6251 11.5286 53.6251 11.2026C53.6251 7.44262 50.5661 4.38379 46.8063 4.38379C43.0465 4.38379 39.9877 7.44262 39.9877 11.2026C39.9877 11.5284 40.0122 11.8487 40.0566 12.1625H25.1962C24.8374 12.1653 24.4869 12.3079 24.2329 12.5616L7.25045 29.5441C6.9976 29.7982 6.85247 30.149 6.85156 30.5073V67.6657C6.85156 68.4181 7.46151 69.0281 8.21387 69.0281C8.96622 69.0281 9.57617 68.4181 9.57617 67.6657V31.8696H23.2165C25.0594 31.8696 26.5585 30.3704 26.5585 28.5276V14.8872H41.0734C42.2882 16.7708 44.4032 18.0214 46.8063 18.0214C49.2094 18.0214 51.3246 16.7706 52.5394 14.8872H63.4433C63.7837 14.8872 64.0607 15.1642 64.0607 15.5046V26.1932C64.0607 26.9455 64.6705 27.5555 65.423 27.5555C66.1756 27.5555 66.7853 26.9455 66.7853 26.1932V15.5046C66.7853 13.6618 65.2861 12.1625 63.4433 12.1625ZM23.2165 29.145H11.5028L23.8341 16.8138V28.5276C23.8339 28.868 23.557 29.145 23.2165 29.145ZM46.8063 15.2968C44.5489 15.2968 42.7123 13.4602 42.7123 11.2026C42.7123 8.94497 44.5489 7.1084 46.8063 7.1084C49.0639 7.1084 50.9005 8.94497 50.9005 11.2026C50.9005 13.4602 49.0639 15.2968 46.8063 15.2968Z" fill="black"/>
<path d="M32.3228 64.7174C32.8078 65.2927 33.6673 65.3659 34.2424 64.8805C34.854 64.3647 35.7226 64.0695 36.6274 64.0695H36.6399C37.5492 64.0722 38.4214 64.373 39.0327 64.8949C39.2893 65.114 39.6037 65.2209 39.9163 65.2209C40.3012 65.2209 40.6838 65.0587 40.9531 64.743C41.4416 64.1709 41.3736 63.311 40.8015 62.8224C39.6907 61.8742 38.2156 61.3494 36.6481 61.3447C36.641 61.3447 36.6339 61.3447 36.6266 61.3447C35.0673 61.3447 33.5974 61.8602 32.486 62.7975C31.9109 63.2828 31.8379 64.1422 32.3228 64.7174Z" fill="black"/>
<path d="M44.0934 59.0225C44.1221 59.0256 44.1514 59.0261 44.1806 59.0274C44.1977 59.0281 44.2146 59.0301 44.2318 59.0303H44.2395C44.9884 59.0303 45.5976 58.4252 45.6016 57.6754C45.6052 57.0142 45.1371 56.4608 44.5128 56.3335C44.5083 56.3325 44.5036 56.3322 44.4989 56.3313C44.4596 56.3237 44.4198 56.3171 44.3795 56.3131C44.3632 56.3115 44.3465 56.3115 44.3299 56.3104C44.3023 56.3086 44.2747 56.3058 44.2467 56.3057H44.2306C44.228 56.3057 44.2257 56.3057 44.2229 56.3057C44.1761 56.3057 44.1298 56.308 44.084 56.3127C43.397 56.3818 42.8672 56.9621 42.8672 57.6682C42.8672 58.3664 43.3996 58.9411 44.0775 59.0203C44.0829 59.0206 44.0882 59.0219 44.0934 59.0225Z" fill="black"/>
<path d="M29.3994 56.3057C28.6471 56.3057 28.0449 56.9156 28.0449 57.668C28.0449 58.4203 28.6629 59.0303 29.4152 59.0303C30.1676 59.0303 30.7775 58.4203 30.7775 57.668C30.7775 56.9156 30.1676 56.3057 29.4152 56.3057H29.3994Z" fill="black"/>
<path d="M23.6673 48.5367C21.2205 51.5433 19.873 55.3377 19.873 59.2208C19.873 68.5644 27.4747 76.1661 36.8185 76.1661C46.1623 76.1661 53.7638 68.5644 53.7638 59.2208C53.7638 55.3368 52.4158 51.542 49.9682 48.5351C47.5565 45.5724 44.184 43.4911 40.4722 42.6748C39.7367 42.5126 39.0107 42.978 38.8489 43.7127C38.6872 44.4475 39.152 45.1742 39.8868 45.3359C43.0005 46.0207 45.8304 47.7677 47.8552 50.2552C49.9084 52.7775 51.0391 55.9617 51.0391 59.2208C51.0391 67.0621 44.6597 73.4415 36.8185 73.4415C28.9772 73.4415 22.5977 67.0621 22.5977 59.2208C22.5977 55.9622 23.728 52.7786 25.7805 50.2565C27.8048 47.7693 30.6338 46.0219 33.7466 45.3366C34.4813 45.1748 34.946 44.448 34.7841 43.7131C34.6223 42.9784 33.8955 42.5143 33.1606 42.6756C29.4497 43.4929 26.0783 45.5744 23.6673 48.5367Z" fill="black"/>
<path d="M36.8137 37.6931C37.564 37.6931 38.1734 37.0859 38.1758 36.3348L38.189 31.9181C38.1914 31.1657 37.5833 30.5539 36.8307 30.5518C36.8293 30.5518 36.828 30.5518 36.8266 30.5518C36.0762 30.5518 35.4668 31.159 35.4644 31.9101L35.4512 36.3268C35.449 37.0792 36.0569 37.691 36.8095 37.6931H36.8137Z" fill="black"/>
<path d="M30.2271 39.5751C30.4652 39.5751 30.7066 39.5126 30.9257 39.3813C31.5712 38.9948 31.781 38.1581 31.3945 37.5126L29.0997 33.6812C28.7131 33.0357 27.8765 32.8257 27.2309 33.2124C26.5854 33.5989 26.3756 34.4356 26.7621 35.0811L29.057 38.9125C29.3124 39.3388 29.7639 39.5751 30.2271 39.5751Z" fill="black"/>
<path d="M43.3887 39.6352C43.8489 39.6352 44.2981 39.4018 44.5544 38.9797L46.8723 35.1611C47.2627 34.5179 47.0578 33.68 46.4146 33.2896C45.7712 32.8995 44.9337 33.1042 44.5432 33.7474L42.2253 37.566C41.8349 38.2092 42.0398 39.0471 42.683 39.4374C42.904 39.5715 43.1478 39.6352 43.3887 39.6352Z" fill="black"/>
<path d="M10.0982 12.4754C10.3642 12.7415 10.7129 12.8745 11.0615 12.8745C11.41 12.8745 11.7588 12.7415 12.0247 12.4754L13.1716 11.3285L14.3185 12.4754C14.5844 12.7413 14.9331 12.8745 15.2817 12.8745C15.6303 12.8745 15.979 12.7415 16.245 12.4754C16.777 11.9434 16.777 11.0808 16.245 10.5489L15.0981 9.40207L16.245 8.25519C16.777 7.72316 16.777 6.86055 16.245 6.32871C15.7129 5.79668 14.8503 5.79668 14.3185 6.32871L13.1716 7.47559L12.0247 6.32871C11.4927 5.79668 10.6301 5.79668 10.0982 6.32871C9.56621 6.86073 9.56621 7.72334 10.0982 8.25519L11.2451 9.40207L10.0982 10.5489C9.56621 11.0808 9.56621 11.9434 10.0982 12.4754Z" fill="black"/>
<path d="M32.8737 6.00336C33.1397 6.26946 33.4884 6.40242 33.837 6.40242C34.1856 6.40242 34.5343 6.26946 34.8002 6.00336L35.6759 5.12785L36.5514 6.00336C36.8175 6.26928 37.1663 6.40242 37.5148 6.40242C37.8634 6.40242 38.2122 6.26946 38.4783 6.00336C39.0103 5.47133 39.0103 4.60872 38.4783 4.07688L37.6026 3.20119L38.4783 2.3255C39.0103 1.79347 39.0103 0.930863 38.4783 0.399019C37.9461 -0.133006 37.0836 -0.133006 36.5516 0.399019L35.6761 1.27453L34.8004 0.399019C34.2684 -0.133006 33.4058 -0.133006 32.8739 0.399019C32.3419 0.931044 32.3419 1.79366 32.8739 2.3255L33.7496 3.20119L32.8739 4.07688C32.3415 4.60872 32.3415 5.47133 32.8737 6.00336Z" fill="black"/>
<path d="M10.5697 20.2526C10.5697 17.3385 8.19889 14.9678 5.28483 14.9678C2.37077 14.9678 0 17.3385 0 20.2526C0 23.1667 2.37077 25.5374 5.28483 25.5374C8.19889 25.5374 10.5697 23.1667 10.5697 20.2526ZM5.28483 22.8128C3.87312 22.8128 2.72461 21.6643 2.72461 20.2526C2.72461 18.8409 3.87312 17.6924 5.28483 17.6924C6.69654 17.6924 7.84506 18.8409 7.84506 20.2526C7.84506 21.6643 6.69654 22.8128 5.28483 22.8128Z" fill="black"/>
<path d="M70.6667 5.74611L71.5424 4.87042C72.0745 4.3384 72.0745 3.47578 71.5424 2.94394C71.0102 2.41192 70.1478 2.41192 69.6158 2.94394L68.7403 3.81945L67.8647 2.94394C67.3325 2.41192 66.4701 2.41192 65.9381 2.94394C65.4061 3.47597 65.4061 4.33858 65.9381 4.87042L66.8138 5.74611L65.9381 6.6218C65.4061 7.15383 65.4061 8.01644 65.9381 8.54828C66.2042 8.8142 66.5529 8.94735 66.9015 8.94735C67.2501 8.94735 67.5988 8.81438 67.8649 8.54828L68.7404 7.67277L69.616 8.54828C69.8821 8.8142 70.2308 8.94735 70.5794 8.94735C70.9279 8.94735 71.2767 8.81438 71.5428 8.54828C72.0748 8.01626 72.0748 7.15364 71.5428 6.6218L70.6667 5.74611Z" fill="black"/>
</svg>
