
<svg width="85" height="85" viewBox="0 0 85 85" fill="none" xmlns="http://www.w3.org/2000/svg">
<g clip-path="url(#clip0)">
<path d="M42.5001 85.0002C65.9722 85.0002 85.0002 65.9722 85.0002 42.5001C85.0002 19.0279 65.9722 0 42.5001 0C19.0279 0 0 19.0279 0 42.5001C0 65.9722 19.0279 85.0002 42.5001 85.0002Z" fill="white"/>
<path d="M72.5655 12.4347C55.9828 -4.14491 29.0145 -4.14491 12.4317 12.4347C-4.14391 29.0144 -4.14391 55.9902 12.4317 72.5698C20.7231 80.8579 31.6117 85 42.5005 85C53.3892 85 64.2741 80.8577 72.5655 72.5698C89.1448 55.9903 89.1448 29.0144 72.5655 12.4347ZM60.0363 55.03C61.4217 56.4154 61.4217 58.6549 60.0363 60.0403C59.3453 60.7312 58.4383 61.0785 57.5311 61.0785C56.6241 61.0785 55.7169 60.7312 55.0259 60.0403L42.5003 47.5107L29.9782 60.0366C29.2837 60.7276 28.3765 61.0749 27.473 61.0749C26.5659 61.0749 25.6587 60.7276 24.9678 60.0366C23.5824 58.6512 23.5824 56.4082 24.9678 55.0263L37.4899 42.5004L24.9643 29.9746C23.5789 28.5891 23.5789 26.3462 24.9643 24.9643C26.3462 23.5788 28.5891 23.5788 29.9745 24.9643L42.5001 37.4901L55.0257 24.9643C56.4111 23.5788 58.6506 23.5788 60.0359 24.9643C61.4213 26.3462 61.4213 28.5891 60.0359 29.9746L47.5103 42.5004L60.0363 55.03Z" fill="#EF4444"/>
<path d="M85.0001 42.4999C85.0001 65.8749 65.8751 85 42.5 85C28.9532 85 17.0001 78.8906 9.29688 69.0625C16.4688 74.9063 25.7657 78.3594 35.8593 78.3594C59.2344 78.3594 78.3594 59.2344 78.3594 35.8593C78.3594 25.7657 74.9063 16.4688 69.0625 9.29688C78.8908 16.9997 85.0001 28.9529 85.0001 42.4999Z" fill="#E32C2C"/>
</g>
<defs>
<clipPath id="clip0">
<rect width="85" height="85" fill="white"/>
</clipPath>
</defs>
</svg>
