
<svg width="18" height="17" viewBox="0 0 18 17" fill="none" xmlns="http://www.w3.org/2000/svg">
    <g clip-path="url(#clip0)">
        <path d="M10.7328 2.39119L2.97852 10.3594L7.0757 14.5696L14.83 6.6014L10.7328 2.39119Z" fill="#D5D5D5"/>
        <path d="M16.9071 3.38793L13.8811 0.234387C13.5807 -0.0743515 13.1086 -0.0743515 12.8296 0.212334C12.8296 0.212334 12.8296 0.212334 12.8081 0.234387L11.4775 1.60166L15.5765 5.83579L16.9071 4.46852C17.2075 4.15978 17.2075 3.67462 16.9071 3.38793Z" fill="#D5D5D5"/>
        <path d="M2.3792 11.2832L0.683803 15.9584C0.533578 16.3553 0.726724 16.7964 1.11302 16.9507C1.2847 17.0169 1.47785 17.0169 1.64953 16.9507L6.1992 15.1865L2.3792 11.2832Z" fill="#D5D5D5"/>
    </g>
    <defs>
        <clipPath id="clip0">
            <rect width="16.5436" height="17" fill="white" transform="translate(0.610352)"/>
        </clipPath>
    </defs>
</svg>
