
<svg width="17" height="17" viewBox="0 0 17 17" fill="none" xmlns="http://www.w3.org/2000/svg">
    <g clip-path="url(#clip0)">
        <path d="M9.91558 17C9.76231 17 9.61318 16.9503 9.49057 16.8583L6.65724 14.7333C6.56927 14.6674 6.49787 14.5818 6.44869 14.4834C6.39951 14.3851 6.37391 14.2766 6.37391 14.1667V10.1858L1.40424 4.59496C1.05129 4.19679 0.820843 3.70516 0.74059 3.17917C0.660336 2.65317 0.733693 2.11519 0.951845 1.62988C1.17 1.14458 1.52366 0.7326 1.97033 0.443463C2.41699 0.154327 2.93766 0.000336047 3.46974 0L13.5281 0C14.0601 0.000624078 14.5806 0.15487 15.0271 0.444201C15.4736 0.733532 15.8271 1.14564 16.045 1.631C16.2629 2.11636 16.336 2.65432 16.2556 3.18024C16.1751 3.70616 15.9445 4.19765 15.5915 4.59567L10.6239 10.1858V16.2917C10.6239 16.4795 10.5493 16.6597 10.4164 16.7925C10.2836 16.9254 10.1034 17 9.91558 17Z" fill="#D5D5D5"/>
    </g>
    <defs>
        <clipPath id="clip0">
            <rect width="17" height="17" fill="white"/>
        </clipPath>
    </defs>
</svg>
