<svg width="15" height="17" viewBox="0 0 15 17" fill="none" xmlns="http://www.w3.org/2000/svg">
    <path d="M13.3429 2.83333H11.2055C11.0454 2.03392 10.622 1.31562 10.0066 0.799509C9.39113 0.283397 8.6213 0.00103029 7.82684 0L6.44781 0C5.65335 0.00103029 4.88352 0.283397 4.26809 0.799509C3.65265 1.31562 3.22923 2.03392 3.06919 2.83333H0.931701C0.748831 2.83333 0.57345 2.90796 0.444141 3.0408C0.314832 3.17364 0.242188 3.3538 0.242188 3.54167C0.242188 3.72953 0.314832 3.9097 0.444141 4.04253C0.57345 4.17537 0.748831 4.25 0.931701 4.25H1.62121V13.4583C1.62231 14.3973 1.98589 15.2975 2.63219 15.9614C3.2785 16.6254 4.15477 16.9989 5.06878 17H9.20586C10.1199 16.9989 10.9961 16.6254 11.6425 15.9614C12.2888 15.2975 12.6523 14.3973 12.6534 13.4583V4.25H13.3429C13.5258 4.25 13.7012 4.17537 13.8305 4.04253C13.9598 3.9097 14.0325 3.72953 14.0325 3.54167C14.0325 3.3538 13.9598 3.17364 13.8305 3.0408C13.7012 2.90796 13.5258 2.83333 13.3429 2.83333ZM6.44781 12.0417C6.44781 12.2295 6.37516 12.4097 6.24586 12.5425C6.11655 12.6754 5.94117 12.75 5.7583 12.75C5.57543 12.75 5.40005 12.6754 5.27074 12.5425C5.14143 12.4097 5.06878 12.2295 5.06878 12.0417V7.79167C5.06878 7.6038 5.14143 7.42364 5.27074 7.2908C5.40005 7.15796 5.57543 7.08333 5.7583 7.08333C5.94117 7.08333 6.11655 7.15796 6.24586 7.2908C6.37516 7.42364 6.44781 7.6038 6.44781 7.79167V12.0417ZM9.20586 12.0417C9.20586 12.2295 9.13322 12.4097 9.00391 12.5425C8.8746 12.6754 8.69922 12.75 8.51635 12.75C8.33348 12.75 8.1581 12.6754 8.02879 12.5425C7.89948 12.4097 7.82684 12.2295 7.82684 12.0417V7.79167C7.82684 7.6038 7.89948 7.42364 8.02879 7.2908C8.1581 7.15796 8.33348 7.08333 8.51635 7.08333C8.69922 7.08333 8.8746 7.15796 9.00391 7.2908C9.13322 7.42364 9.20586 7.6038 9.20586 7.79167V12.0417ZM4.49718 2.83333C4.64031 2.41931 4.90461 2.0609 5.25384 1.80727C5.60307 1.55364 6.02012 1.4172 6.44781 1.41667H7.82684C8.25453 1.4172 8.67158 1.55364 9.02081 1.80727C9.37004 2.0609 9.63434 2.41931 9.77747 2.83333H4.49718Z" fill="#D5D5D5"/>
</svg>
