<svg width="17" height="17" viewBox="0 0 17 17" fill="none" xmlns="http://www.w3.org/2000/svg">
<path fill-rule="evenodd" clip-rule="evenodd" d="M0 5C0 2.23858 2.23858 0 5 0H8.5H12C14.7614 0 17 2.23858 17 5V8.49697C17 8.49798 17 8.49899 17 8.5C17 8.50268 17 8.50537 17 8.50805V12C17 14.7614 14.7614 17 12 17H8.50697C8.50229 17 8.49761 17 8.49293 17H5C2.23858 17 0 14.7614 0 12V8.50006V5ZM11.4993 10.5624C11.4601 10.4753 11.4036 10.3971 11.3333 10.3325L9.50159 8.5L11.3333 6.66754C11.4036 6.60287 11.4601 6.52467 11.4993 6.43763C11.5386 6.35058 11.5598 6.2565 11.5618 6.16103C11.5638 6.06556 11.5465 5.97068 11.5108 5.88208C11.4752 5.79349 11.422 5.71301 11.3545 5.64549C11.287 5.57797 11.2065 5.5248 11.1179 5.48917C11.0293 5.45355 10.9344 5.4362 10.839 5.43818C10.7435 5.44016 10.6494 5.46142 10.5624 5.50068C10.4753 5.53995 10.3971 5.59641 10.3325 5.66667L8.5 7.49842L6.66825 5.66667C6.53466 5.53764 6.35573 5.46624 6.17001 5.46786C5.98429 5.46947 5.80663 5.54396 5.6753 5.67529C5.54397 5.80663 5.46947 5.98428 5.46786 6.17001C5.46625 6.35573 5.53764 6.53466 5.66667 6.66825L7.49842 8.5L5.66667 10.3317C5.53764 10.4653 5.46625 10.6443 5.46786 10.83C5.46947 11.0157 5.54397 11.1934 5.6753 11.3247C5.80663 11.456 5.98429 11.5305 6.17001 11.5321C6.35573 11.5338 6.53466 11.4624 6.66825 11.3333L8.5 9.50158L10.3325 11.3333C10.3971 11.4036 10.4753 11.4601 10.5624 11.4993C10.6494 11.5386 10.7435 11.5598 10.839 11.5618C10.9344 11.5638 11.0293 11.5465 11.1179 11.5108C11.2065 11.4752 11.287 11.422 11.3545 11.3545C11.422 11.287 11.4752 11.2065 11.5108 11.1179C11.5465 11.0293 11.5638 10.9344 11.5618 10.839C11.5598 10.7435 11.5386 10.6494 11.4993 10.5624Z" fill="#01395E"/>
</svg>
