<svg width="78" height="79" viewBox="0 0 78 79" fill="none" xmlns="http://www.w3.org/2000/svg">
<ellipse cx="38.7772" cy="39.5" rx="38.7606" ry="39.5" fill="#C7D30A" fill-opacity="0.25"/>
<mask id="mask0" mask-type="alpha" maskUnits="userSpaceOnUse" x="0" y="0" width="78" height="79">
<ellipse cx="38.7772" cy="39.5" rx="38.7606" ry="39.5" fill="#C7D30A"/>
</mask>
<g mask="url(#mask0)">
<path d="M40.0273 45.8685C50.1553 45.8685 58.3657 37.5016 58.3657 27.1804C58.3657 16.8592 50.1553 8.49219 40.0273 8.49219C29.8993 8.49219 21.689 16.8592 21.689 27.1804C21.689 37.5016 29.8993 45.8685 40.0273 45.8685Z" fill="#C7D30A"/>
<path d="M40.027 52.0977C32.7341 52.1059 25.7421 55.0619 20.5852 60.3172C15.4283 65.5725 12.5276 72.6978 12.5195 80.1299C12.5195 80.956 12.8415 81.7482 13.4147 82.3323C13.9879 82.9165 14.7653 83.2446 15.5759 83.2446H64.4782C65.2888 83.2446 66.0662 82.9165 66.6394 82.3323C67.2125 81.7482 67.5345 80.956 67.5345 80.1299C67.5265 72.6978 64.6258 65.5725 59.4689 60.3172C54.3119 55.0619 47.32 52.1059 40.027 52.0977Z" fill="#C7D30A"/>
</g>
</svg>
