<svg width="78" height="79" viewBox="0 0 78 79" fill="none" xmlns="http://www.w3.org/2000/svg">
<ellipse cx="39.0262" cy="39.5" rx="38.7606" ry="39.5" fill="#7ED1FF" fill-opacity="0.25"/>
<mask id="mask0" mask-type="alpha" maskUnits="userSpaceOnUse" x="0" y="0" width="78" height="79">
<ellipse cx="39.0262" cy="39.5" rx="38.7606" ry="39.5" fill="#C7D30A"/>
</mask>
<g mask="url(#mask0)">
<path d="M40.2763 45.8685C50.4043 45.8685 58.6147 37.5016 58.6147 27.1804C58.6147 16.8592 50.4043 8.49219 40.2763 8.49219C30.1483 8.49219 21.938 16.8592 21.938 27.1804C21.938 37.5016 30.1483 45.8685 40.2763 45.8685Z" fill="#7ED1FF"/>
<path d="M40.2766 52.0977C32.9836 52.1059 25.9916 55.0619 20.8347 60.3172C15.6778 65.5725 12.7771 72.6978 12.769 80.1299C12.769 80.956 13.0911 81.7482 13.6642 82.3323C14.2374 82.9165 15.0148 83.2446 15.8254 83.2446H64.7277C65.5383 83.2446 66.3157 82.9165 66.8889 82.3323C67.4621 81.7482 67.7841 80.956 67.7841 80.1299C67.776 72.6978 64.8753 65.5725 59.7184 60.3172C54.5615 55.0619 47.5695 52.1059 40.2766 52.0977Z" fill="#7ED1FF"/>
</g>
</svg>
