<svg width="79" height="79" viewBox="0 0 79 79" fill="none" xmlns="http://www.w3.org/2000/svg">
<ellipse cx="39.5277" cy="39.5" rx="38.7606" ry="39.5" fill="#FBEF82" fill-opacity="0.25"/>
<mask id="mask0" mask-type="alpha" maskUnits="userSpaceOnUse" x="0" y="0" width="79" height="79">
<ellipse cx="39.5277" cy="39.5" rx="38.7606" ry="39.5" fill="#C7D30A"/>
</mask>
<g mask="url(#mask0)">
<path d="M40.7773 45.8685C50.9053 45.8685 59.1157 37.5016 59.1157 27.1804C59.1157 16.8592 50.9053 8.49219 40.7773 8.49219C30.6493 8.49219 22.439 16.8592 22.439 27.1804C22.439 37.5016 30.6493 45.8685 40.7773 45.8685Z" fill="#FBEF82"/>
<path d="M40.778 52.0977C33.4851 52.1059 26.4931 55.0619 21.3362 60.3172C16.1793 65.5725 13.2786 72.6978 13.2705 80.1299C13.2705 80.956 13.5925 81.7482 14.1657 82.3323C14.7389 82.9165 15.5163 83.2446 16.3269 83.2446H65.2291C66.0397 83.2446 66.8171 82.9165 67.3903 82.3323C67.9635 81.7482 68.2855 80.956 68.2855 80.1299C68.2774 72.6978 65.3767 65.5725 60.2198 60.3172C55.0629 55.0619 48.071 52.1059 40.778 52.0977Z" fill="#FBEF82"/>
</g>
</svg>
