<svg width="79" height="79" viewBox="0 0 79 79" fill="none" xmlns="http://www.w3.org/2000/svg">
<ellipse cx="39.2762" cy="39.5" rx="38.7606" ry="39.5" fill="#31C2D3" fill-opacity="0.25"/>
<mask id="mask0" mask-type="alpha" maskUnits="userSpaceOnUse" x="0" y="0" width="79" height="79">
<ellipse cx="39.2762" cy="39.5" rx="38.7606" ry="39.5" fill="#C7D30A"/>
</mask>
<g mask="url(#mask0)">
<path d="M40.5258 45.8685C50.6538 45.8685 58.8642 37.5016 58.8642 27.1804C58.8642 16.8592 50.6538 8.49219 40.5258 8.49219C30.3979 8.49219 22.1875 16.8592 22.1875 27.1804C22.1875 37.5016 30.3979 45.8685 40.5258 45.8685Z" fill="#31C2D3"/>
<path d="M40.5261 52.0977C33.2331 52.1059 26.2412 55.0619 21.0843 60.3172C15.9273 65.5725 13.0266 72.6978 13.0186 80.1299C13.0186 80.956 13.3406 81.7482 13.9138 82.3323C14.4869 82.9165 15.2643 83.2446 16.0749 83.2446H64.9772C65.7878 83.2446 66.5652 82.9165 67.1384 82.3323C67.7116 81.7482 68.0336 80.956 68.0336 80.1299C68.0255 72.6978 65.1248 65.5725 59.9679 60.3172C54.811 55.0619 47.819 52.1059 40.5261 52.0977Z" fill="#31C2D3"/>
</g>
</svg>
