<svg width="79" height="79" viewBox="0 0 79 79" fill="none" xmlns="http://www.w3.org/2000/svg">
<ellipse cx="39.5252" cy="39.5" rx="38.7606" ry="39.5" fill="#01395E" fill-opacity="0.25"/>
<mask id="mask0" mask-type="alpha" maskUnits="userSpaceOnUse" x="0" y="0" width="79" height="79">
<ellipse cx="39.5252" cy="39.5" rx="38.7606" ry="39.5" fill="#C7D30A"/>
</mask>
<g mask="url(#mask0)">
<path d="M40.7749 45.8685C50.9029 45.8685 59.1132 37.5016 59.1132 27.1804C59.1132 16.8592 50.9029 8.49219 40.7749 8.49219C30.6469 8.49219 22.4365 16.8592 22.4365 27.1804C22.4365 37.5016 30.6469 45.8685 40.7749 45.8685Z" fill="#01395E"/>
<path d="M40.7751 52.0977C33.4821 52.1059 26.4902 55.0619 21.3333 60.3172C16.1764 65.5725 13.2757 72.6978 13.2676 80.1299C13.2676 80.956 13.5896 81.7482 14.1628 82.3323C14.736 82.9165 15.5134 83.2446 16.324 83.2446H65.2262C66.0368 83.2446 66.8142 82.9165 67.3874 82.3323C67.9606 81.7482 68.2826 80.956 68.2826 80.1299C68.2745 72.6978 65.3738 65.5725 60.2169 60.3172C55.06 55.0619 48.068 52.1059 40.7751 52.0977Z" fill="#01395E"/>
</g>
</svg>
