<svg width="49" height="49" viewBox="0 0 49 49" fill="none" xmlns="http://www.w3.org/2000/svg">
<circle cx="24.5" cy="24.5" r="24.5" fill="#FFF0EB"/>
<mask id="mask0" mask-type="alpha" maskUnits="userSpaceOnUse" x="0" y="0" width="49" height="49">
<circle cx="24.5" cy="24.5" r="24.5" fill="#C4C4C4"/>
</mask>
<g mask="url(#mask0)">
<path d="M25.2867 28.4504C31.6885 28.4504 36.8781 23.2607 36.8781 16.859C36.8781 10.4572 31.6885 5.26758 25.2867 5.26758C18.885 5.26758 13.6953 10.4572 13.6953 16.859C13.6953 23.2607 18.885 28.4504 25.2867 28.4504Z" fill="#FFD7CB"/>
<path d="M25.2875 32.3164C20.6777 32.3215 16.2582 34.155 12.9986 37.4146C9.739 40.6742 7.9055 45.0937 7.90039 49.7035C7.90039 50.2159 8.10393 50.7073 8.46623 51.0696C8.82853 51.4319 9.31992 51.6354 9.83229 51.6354H40.7427C41.2551 51.6354 41.7464 51.4319 42.1087 51.0696C42.4711 50.7073 42.6746 50.2159 42.6746 49.7035C42.6695 45.0937 40.836 40.6742 37.5764 37.4146C34.3168 34.155 29.8973 32.3215 25.2875 32.3164Z" fill="#FFD7CB"/>
</g>
</svg>
