<svg width="35" height="35" viewBox="0 0 35 35" fill="none" xmlns="http://www.w3.org/2000/svg">
<circle cx="17.5" cy="17.5" r="17" fill="#D5D5D5" fill-opacity="0.26" stroke="#D5D5D5"/>
<mask id="mask0" mask-type="alpha" maskUnits="userSpaceOnUse" x="0" y="0" width="35" height="35">
<circle cx="17.5" cy="17.5" r="17.5" fill="#C4C4C4"/>
</mask>
<g mask="url(#mask0)">
<path d="M18.0647 20.3209C22.6374 20.3209 26.3443 16.614 26.3443 12.0413C26.3443 7.46861 22.6374 3.76172 18.0647 3.76172C13.492 3.76172 9.78516 7.46861 9.78516 12.0413C9.78516 16.614 13.492 20.3209 18.0647 20.3209Z" fill="#D5D5D5"/>
<path d="M18.0639 23.0811C14.7712 23.0847 11.6144 24.3943 9.28611 26.7226C6.95782 29.0509 5.64818 32.2077 5.64453 35.5004C5.64453 35.8664 5.78992 36.2174 6.0487 36.4762C6.30749 36.735 6.65848 36.8803 7.02446 36.8803H29.1033C29.4693 36.8803 29.8203 36.735 30.0791 36.4762C30.3379 36.2174 30.4832 35.8664 30.4832 35.5004C30.4796 32.2077 29.17 29.0509 26.8417 26.7226C24.5134 24.3943 21.3566 23.0847 18.0639 23.0811Z" fill="#D5D5D5"/>
</g>
</svg>
