
<svg width="143" height="146" viewBox="0 0 143 146" fill="none" xmlns="http://www.w3.org/2000/svg">
    <path d="M60 145.896C93.1371 145.896 120 118.81 120 85.3965C120 51.9833 93.1371 24.8965 60 24.8965C26.8629 24.8965 0 51.9833 0 85.3965C0 118.81 26.8629 145.896 60 145.896Z" fill="#E5EFEF"/>
    <path d="M10.727 140.409C10.0103 140.409 9.29294 140.135 8.74578 139.588L0.820738 131.663C-0.273579 130.569 -0.273579 128.795 0.820738 127.701C1.91506 126.606 3.68895 126.606 4.78326 127.701L12.7083 135.626C13.8026 136.72 13.8026 138.494 12.7083 139.588C12.1611 140.136 11.4444 140.409 10.727 140.409Z" fill="#212121"/>
    <path d="M2.802 140.409C2.0853 140.409 1.3679 140.135 0.820738 139.588C-0.273579 138.494 -0.273579 136.72 0.820738 135.626L8.74578 127.701C9.8401 126.606 11.614 126.606 12.7083 127.701C13.8026 128.795 13.8026 130.569 12.7083 131.663L4.78326 139.588C4.2361 140.136 3.5187 140.409 2.802 140.409Z" fill="#212121"/>
    <path d="M26.381 128.04C27.9287 128.04 29.1833 126.785 29.1833 125.238C29.1833 123.69 27.9287 122.435 26.381 122.435C24.8333 122.435 23.5786 123.69 23.5786 125.238C23.5786 126.785 24.8333 128.04 26.381 128.04Z" fill="#212121"/>
    <path d="M17.9732 97.2141C19.5209 97.2141 20.7756 95.9594 20.7756 94.4117C20.7756 92.864 19.5209 91.6094 17.9732 91.6094C16.4256 91.6094 15.1709 92.864 15.1709 94.4117C15.1709 95.9594 16.4256 97.2141 17.9732 97.2141Z" fill="#212121"/>
    <path d="M124.538 122.383H59.077C52.0187 122.383 46.2695 116.64 46.2695 109.575V61.1913C46.2695 54.1266 52.0187 48.3838 59.077 48.3838H124.538C131.596 48.3838 137.345 54.1266 137.345 61.1913V109.575C137.345 116.64 131.596 122.383 124.538 122.383Z" fill="#FFC107"/>
    <path d="M112.36 126.493H55.4376C47.595 126.493 41.207 120.105 41.207 112.263V58.503C41.207 50.6604 47.595 44.2725 55.4376 44.2725H128.171C136.014 44.2725 142.402 50.6604 142.402 58.503V77.4771C142.402 80.0955 140.277 82.2206 137.658 82.2206C135.04 82.2206 132.915 80.0955 132.915 77.4771V58.503C132.915 55.8909 130.784 53.7595 128.171 53.7595H55.4376C52.8255 53.7595 50.6941 55.8909 50.6941 58.503V112.263C50.6941 114.875 52.8255 117.006 55.4376 117.006H112.36C114.978 117.006 117.103 119.131 117.103 121.75C117.103 124.368 114.978 126.493 112.36 126.493Z" fill="black"/>
    <path d="M118.687 53.7598C116.069 53.7598 113.943 51.6347 113.943 49.0163V31.6234C113.943 19.4168 104.014 9.48703 91.807 9.48703C79.6004 9.48703 69.6706 19.4168 69.6706 31.6234V49.0163C69.6706 51.6347 67.5455 53.7598 64.9271 53.7598C62.3087 53.7598 60.1836 51.6347 60.1836 49.0163V31.6234C60.1836 14.1863 74.3699 0 91.807 0C109.244 0 123.43 14.1863 123.43 31.6234V49.0163C123.43 51.6347 121.305 53.7598 118.687 53.7598Z" fill="black"/>
</svg>
