<svg width="24" height="24" viewBox="0 0 16 16" fill="none" xmlns="http://www.w3.org/2000/svg">
<g>
<path transform="translate(-1,4)" d="M4.92632 7.66996C3.79263 7.66996 2.78325 6.94427 2.41669 5.86265L2.39225 5.78084C2.30619 5.49396 2.269 5.25384 2.269 5.01265V0.183594L0.552001 5.92109C0.331001 6.76471 0.834626 7.64021 1.67931 7.8729L12.6326 10.8065C12.7686 10.8426 12.9057 10.8585 13.0396 10.8585C13.7451 10.8585 14.39 10.391 14.5696 9.70039L15.2071 7.67102H4.92632V7.66996Z" fill="#D5D5D5"/>
<path transform="translate(1, 0)" d="M12.7282 0.273438H2.10322C1.12678 0.273438 0.332031 1.06819 0.332031 2.04462V9.83594C0.332031 10.8124 1.12678 11.6071 2.10322 11.6071H12.7282C13.7047 11.6071 14.4994 10.8124 14.4994 9.83594V2.04462C14.4994 1.06712 13.7047 0.273438 12.7282 0.273438ZM2.10322 1.68975H12.7282C12.9237 1.68975 13.082 1.84806 13.082 2.04356V7.07238L10.8444 4.46181C10.6075 4.18344 10.2632 4.03469 9.89453 4.02619C9.52797 4.02831 9.18266 4.19088 8.94784 4.4735L6.31816 7.63125L5.46178 6.77488C4.97728 6.29038 4.18891 6.29038 3.70441 6.77488L1.74941 8.72987V2.04356C1.74941 1.84806 1.90772 1.68975 2.10322 1.68975Z" fill="#D5D5D5"/>
</g>
</svg>
