<svg width="16" height="16" viewBox="0 0 16 16" fill="none" xmlns="http://www.w3.org/2000/svg">
<path d="M14.2731 6.86175L9.08907 6.86175L9.08907 1.67768L9.08915 1.67768L9.089 1.66899C9.08494 1.43554 8.98935 1.21301 8.82282 1.04935C8.65629 0.885691 8.43214 0.793984 8.19865 0.793984C7.96516 0.793984 7.74101 0.885691 7.57447 1.04935C7.40794 1.21301 7.31236 1.43554 7.3083 1.66899L7.30822 1.66899L7.30822 1.67768L7.30822 6.86175L2.12415 6.86175L2.12408 6.86175C1.88795 6.86179 1.66151 6.9556 1.49454 7.12257C1.32758 7.28953 1.23376 7.51598 1.23373 7.7521L1.23373 7.75225C1.23376 7.98838 1.32758 8.21482 1.49454 8.38178C1.66151 8.54875 1.88795 8.64256 2.12408 8.6426L2.12415 8.6426L7.30822 8.6426L7.30822 13.8267V13.8267C7.30825 14.0629 7.40207 14.2893 7.56904 14.4563C7.736 14.6232 7.96244 14.7171 8.19857 14.7171H8.19872C8.43485 14.7171 8.66129 14.6232 8.82825 14.4563C8.99522 14.2893 9.08903 14.0629 9.08907 13.8267L9.08907 13.8267L9.08907 8.6426L14.2731 8.6426V8.64267L14.2818 8.64252C14.5153 8.63846 14.7378 8.54288 14.9015 8.37634C15.0651 8.20981 15.1568 7.98566 15.1568 7.75218L14.6568 7.75217L15.1568 7.75217C15.1568 7.51868 15.0651 7.29453 14.9015 7.128C14.7378 6.96147 14.5153 6.86588 14.2818 6.86182L14.2818 6.86175L14.2731 6.86175Z" fill="white" stroke="white"/>
</svg>
