
<svg width="24" height="24" viewBox="0 0 24 24" fill="none" xmlns="http://www.w3.org/2000/svg">
    <path fill-rule="evenodd" clip-rule="evenodd" d="M0 5C0 2.23858 2.23858 0 5 0H12H19C21.7614 0 24 2.23858 24 5V11.9955C24 11.997 24 11.9985 24 12C24 12.0039 24 12.0078 24 12.0117V19C24 21.7614 21.7614 24 19 24H12.01C12.0033 24 11.9966 24 11.9899 24H5C2.23858 24 0 21.7614 0 19V12.0001V5ZM19.9373 21H20V20.9443C19.9792 20.9629 19.9582 20.9815 19.9373 21ZM20 3.06287V3H19.9292C19.9529 3.02086 19.9765 3.04182 20 3.06287ZM11.4444 19.8315C11.6089 19.9414 11.8022 20 12 20C12.2652 20 12.5196 19.8946 12.7071 19.7071C12.8946 19.5196 13 19.2652 13 19C13 18.8022 12.9414 18.6089 12.8315 18.4444C12.7216 18.28 12.5654 18.1518 12.3827 18.0761C12.2 18.0004 11.9989 17.9806 11.8049 18.0192C11.6109 18.0578 11.4328 18.153 11.2929 18.2929C11.153 18.4327 11.0578 18.6109 11.0192 18.8049C10.9806 18.9989 11.0004 19.2 11.0761 19.3827C11.1518 19.5654 11.28 19.7216 11.4444 19.8315ZM13.2303 13.2569C13.3936 12.9495 13.6349 12.6905 13.93 12.506V12.505C14.5479 12.1646 15.0649 11.6668 15.4283 11.0622C15.7918 10.4575 15.9889 9.76746 15.9995 9.06204C16.0102 8.35663 15.8342 7.66094 15.4892 7.04554C15.1442 6.43013 14.6427 5.91692 14.0353 5.55794C13.428 5.19897 12.7365 5.00701 12.031 5.00154C11.3256 4.99606 10.6312 5.17728 10.0184 5.52679C9.40552 5.8763 8.89603 6.38167 8.54156 6.99165C8.18709 7.60163 8.00026 8.29451 8.00001 9C8.00001 9.26522 8.10536 9.51957 8.2929 9.70711C8.48044 9.89464 8.73479 10 9.00001 10C9.26522 10 9.51958 9.89464 9.70711 9.70711C9.89465 9.51957 10 9.26522 10 9C10.0005 8.70682 10.0655 8.41735 10.1903 8.15207C10.3152 7.8868 10.4968 7.65221 10.7223 7.46492C10.9479 7.27762 11.2118 7.14221 11.4955 7.06826C11.7792 6.99431 12.0757 6.98364 12.364 7.037C12.759 7.11368 13.1223 7.30639 13.4073 7.59049C13.6922 7.87459 13.8861 8.2372 13.964 8.632C14.0427 9.0464 13.9884 9.47508 13.8088 9.85674C13.6292 10.2384 13.3335 10.5535 12.964 10.757C12.3541 11.112 11.8503 11.6238 11.5049 12.2393C11.1596 12.8547 10.9852 13.5514 11 14.257V15C11 15.2652 11.1054 15.5196 11.2929 15.7071C11.4804 15.8946 11.7348 16 12 16C12.2652 16 12.5196 15.8946 12.7071 15.7071C12.8946 15.5196 13 15.2652 13 15V14.257C12.9876 13.9092 13.0671 13.5642 13.2303 13.2569Z" fill="#D5D5D5"/>
</svg>
