
<svg width="18" height="17" viewBox="0 0 18 17" fill="none" xmlns="http://www.w3.org/2000/svg">
    <path d="M8.08278 14.1667C9.71683 14.1688 11.3009 13.6035 12.5644 12.5673L16.7903 16.7925C16.9239 16.9215 17.1028 16.9929 17.2886 16.9913C17.4743 16.9897 17.6519 16.9152 17.7833 16.7838C17.9146 16.6525 17.9891 16.4748 17.9907 16.2891C17.9923 16.1034 17.9209 15.9245 17.7919 15.7909L13.5667 11.565C14.5843 10.3195 15.1477 8.76477 15.1643 7.15652C15.181 5.54828 14.6498 3.98226 13.6581 2.71601C12.6665 1.44977 11.2735 0.558691 9.70811 0.189329C8.14277 -0.180032 6.49833 -0.00568403 5.04524 0.683699C3.59215 1.37308 2.41692 2.53645 1.71285 3.98248C1.00877 5.42851 0.817767 7.0711 1.17124 8.64011C1.52472 10.2091 2.40164 11.6111 3.65777 12.6155C4.9139 13.62 6.47445 14.167 8.08278 14.1667Z" fill="#01395E"/>
</svg>
