

<svg width="17" height="17" viewBox="0 0 17 17" fill="none" xmlns="http://www.w3.org/2000/svg">
    <g clip-path="url(#clip0)">
        <path d="M7.08278 14.1667C8.71683 14.1688 10.3009 13.6035 11.5644 12.5673L15.7903 16.7925C15.9239 16.9215 16.1028 16.9929 16.2886 16.9913C16.4743 16.9897 16.6519 16.9152 16.7833 16.7838C16.9146 16.6525 16.9891 16.4748 16.9907 16.2891C16.9923 16.1034 16.9209 15.9245 16.7919 15.7909L12.5667 11.565C13.5843 10.3195 14.1477 8.76477 14.1643 7.15652C14.181 5.54828 13.6498 3.98226 12.6581 2.71601C11.6665 1.44977 10.2735 0.558691 8.70811 0.189329C7.14277 -0.180032 5.49833 -0.00568403 4.04524 0.683699C2.59215 1.37308 1.41692 2.53645 0.712847 3.98248C0.00877226 5.42851 -0.182233 7.0711 0.171244 8.64011C0.524722 10.2091 1.40164 11.6111 2.65777 12.6155C3.9139 13.62 5.47445 14.167 7.08278 14.1667Z" fill="#D5D5D5"/>
    </g>
    <defs>
        <clipPath id="clip0">
            <rect width="17" height="17" fill="white"/>
        </clipPath>
    </defs>
</svg>

