<svg width="114" height="134" viewBox="0 0 114 134" fill="none" xmlns="http://www.w3.org/2000/svg">
<path d="M55.3601 0.634408C45.5718 9.52212 25.9429 15.8615 2.81352 16.8241C1.50441 16.8785 0.470093 17.9539 0.470093 19.2641V65.4328C0.470093 88.6329 12.9413 110.042 33.1224 121.486L53.6137 133.107C55.7142 134.298 58.2861 134.298 60.3864 133.107L80.8777 121.486C101.059 110.042 113.53 88.6329 113.53 65.4328V19.2641C113.53 17.9539 112.496 16.8785 111.187 16.8241C88.0572 15.8612 68.4288 9.52159 58.6402 0.634147C57.709 -0.211467 56.2916 -0.211467 55.3601 0.634408Z" fill="url(#paint0_linear)"/>
<path d="M38.4371 112.575C21.4636 102.95 10.9192 84.8482 10.9192 65.3352V28.8181C10.9192 27.6715 11.7789 26.7058 12.9179 26.5752C30.0158 24.6144 44.9324 19.9851 55.8252 13.3018C56.547 12.859 57.4538 12.859 58.1757 13.3018C69.0681 19.9854 83.9845 24.6144 101.082 26.5752C102.221 26.7058 103.081 27.6715 103.081 28.8181V65.3352C103.081 84.8482 92.5367 102.95 75.5632 112.575L58.1149 122.47C57.4235 122.862 56.5771 122.862 55.8856 122.47L38.4371 112.575Z" fill="url(#paint1_linear)"/>
<path d="M57 28.3242C46.2115 28.3242 37.434 37.1015 37.434 47.8903V53.6847H45.1198C45.1198 51.8453 45.1198 49.7331 45.1198 47.8903C45.1198 41.3398 50.4492 36.0104 56.9998 36.0104C63.5503 36.0104 68.8797 41.3398 68.8797 47.8903V53.6847H76.5656C76.5656 51.8453 76.5656 49.7331 76.5656 47.8903C76.5661 37.1015 67.7886 28.3242 57 28.3242Z" fill="#8D9CA8"/>
<path d="M79.2695 94.8642H34.7307C32.0308 94.8642 29.8423 92.6757 29.8423 89.9758V58.0652C29.8423 55.3653 32.0308 53.1768 34.7307 53.1768H79.2697C81.9696 53.1768 84.1581 55.3656 84.1581 58.0652V89.9758C84.1581 92.6754 81.9693 94.8642 79.2695 94.8642Z" fill="url(#paint2_linear)"/>
<path d="M64.0543 68.8744C64.0543 64.9785 60.8958 61.8203 57.0002 61.8203C53.1042 61.8203 49.946 64.9785 49.946 68.8744C49.946 71.4806 51.3606 73.7552 53.4628 74.9764V83.1106C53.4628 85.0644 55.0467 86.6483 57.0004 86.6483C58.9541 86.6483 60.5381 85.0644 60.5381 83.1106V74.9764C62.6399 73.7552 64.0543 71.4806 64.0543 68.8744Z" fill="#384949"/>
<path d="M79.2697 53.1768H71.627C74.3268 53.1768 76.5153 55.3656 76.5153 58.0652V89.9758C76.5153 92.6757 74.3268 94.8642 71.627 94.8642H79.2697C81.9695 94.8642 84.158 92.6757 84.158 89.9758V58.0652C84.158 55.3653 81.9693 53.1768 79.2697 53.1768Z" fill="url(#paint3_linear)"/>
<path d="M111.187 16.8241C108.251 16.7018 105.372 16.4922 102.562 16.2025C102.924 16.6288 103.143 17.1792 103.143 17.7804V63.9492C103.143 87.1492 90.6723 108.558 70.4911 120.003L50.4982 131.34L53.6131 133.107C55.7137 134.298 58.2856 134.298 60.3859 133.107L80.8772 121.486C101.058 110.042 113.529 88.6329 113.529 65.4328V19.2641C113.53 17.9539 112.496 16.8785 111.187 16.8241Z" fill="url(#paint4_linear)"/>
<defs>
<linearGradient id="paint0_linear" x1="57" y1="-3.05176e-05" x2="57" y2="134" gradientUnits="userSpaceOnUse">
<stop stop-color="#60B7FF"/>
<stop offset="1" stop-color="#60B7FF" stop-opacity="0"/>
</linearGradient>
<linearGradient id="paint1_linear" x1="57.0001" y1="12.9697" x2="57.0001" y2="122.764" gradientUnits="userSpaceOnUse">
<stop stop-color="#D8ECFE"/>
<stop offset="1" stop-color="#D8ECFE" stop-opacity="0"/>
</linearGradient>
<linearGradient id="paint2_linear" x1="57.0002" y1="53.1768" x2="57.0002" y2="94.8642" gradientUnits="userSpaceOnUse">
<stop stop-color="#596C76"/>
<stop offset="1" stop-color="#596C76" stop-opacity="0"/>
</linearGradient>
<linearGradient id="paint3_linear" x1="77.8925" y1="53.1768" x2="77.8925" y2="94.8642" gradientUnits="userSpaceOnUse">
<stop stop-color="#465A61"/>
<stop offset="1" stop-color="#465A61" stop-opacity="0"/>
</linearGradient>
<linearGradient id="paint4_linear" x1="82.0138" y1="16.2025" x2="82.0138" y2="134" gradientUnits="userSpaceOnUse">
<stop stop-color="#26A6FE"/>
<stop offset="1" stop-color="#26A6FE" stop-opacity="0"/>
</linearGradient>
</defs>
</svg>
