
<svg width="10" height="6" viewBox="0 0 10 6" fill="none" xmlns="http://www.w3.org/2000/svg">
    <path d="M0.696048 5.2812H8.47395C8.61163 5.28117 8.7462 5.24032 8.86066 5.16382C8.97512 5.08732 9.06433 4.9786 9.11701 4.8514C9.16969 4.72421 9.18348 4.58425 9.15663 4.44922C9.12978 4.31419 9.0635 4.19015 8.96616 4.09279L5.07721 0.203837C4.94665 0.0733203 4.76961 0 4.585 0C4.40039 0 4.22335 0.0733203 4.09279 0.203837L0.203837 4.09279C0.106502 4.19015 0.0402199 4.31419 0.0133693 4.44922C-0.0134812 4.58425 0.000305715 4.72421 0.0529869 4.8514C0.105668 4.9786 0.194878 5.08732 0.30934 5.16382C0.423801 5.24032 0.558375 5.28117 0.696048 5.2812Z" fill="#01395E"/>
</svg>
