
<svg width="86" height="80" viewBox="0 0 86 80" fill="none" xmlns="http://www.w3.org/2000/svg">
    <path d="M83.2959 61.2153L53.2471 6.08771C48.4193 -2.02385 36.6505 -2.03462 31.8162 6.08771L1.76887 61.2153C-3.16647 69.5039 2.80873 80 12.4819 80H72.5804C82.2454 80 88.2313 69.5124 83.2959 61.2153ZM42.5316 70.0514C39.784 70.0514 37.5475 67.8193 37.5475 65.0772C37.5475 62.335 39.784 60.1029 42.5316 60.1029C45.2793 60.1029 47.5158 62.335 47.5158 65.0772C47.5158 67.8193 45.2793 70.0514 42.5316 70.0514ZM47.5158 50.1543C47.5158 52.8965 45.2793 55.1286 42.5316 55.1286C39.784 55.1286 37.5475 52.8965 37.5475 50.1543V25.2829C37.5475 22.5408 39.784 20.3087 42.5316 20.3087C45.2793 20.3087 47.5158 22.5408 47.5158 25.2829V50.1543Z" fill="#F59E0B"/>
    <path fill-rule="evenodd" clip-rule="evenodd" d="M81.9376 58.7266L83.2943 61.2155C88.2296 69.5126 82.2438 80.0002 72.5788 80.0002H16.6208C31.2196 79.7122 59.0864 76.8102 68.4983 75.0002C77.4983 73.2695 82.9983 63.5002 81.9983 59.0002C81.9777 58.9075 81.9575 58.8163 81.9376 58.7266Z" fill="#E69309"/>
</svg>
