<?xml version="1.0" encoding="UTF-8"?>
<svg width="500px" height="500px" viewBox="0 0 500 500" version="1.1" xmlns="http://www.w3.org/2000/svg" xmlns:xlink="http://www.w3.org/1999/xlink">
    <!-- Generator: Sketch 52.5 (67469) - http://www.bohemiancoding.com/sketch -->
    <title>Logo 5 Copy 9</title>
    <desc>Created with Sketch.</desc>
    <g id="Logo-5-Copy-9" stroke="none" stroke-width="1" fill="none" fill-rule="evenodd">
        <rect id="Rectangle" fill="#FFFFFF" fill-rule="nonzero" x="0" y="0" width="500" height="500" rx="16"></rect>
        <g id="Group-2" transform="translate(71.000000, 201.000000)">
            <rect id="Rectangle" stroke="#000000" stroke-width="6.24" fill-rule="nonzero" x="3.12" y="3.12" width="76.6526174" height="76.8925301" rx="3.84"></rect>
            <path d="M21.8601342,19.9874699 C21.4624892,19.9874699 21.1401342,20.3098249 21.1401342,20.7074699 L21.1401342,58.5536913 C21.1401342,79.7207271 38.2994071,96.88 59.466443,96.88 L97.0727517,96.88 C97.4703967,96.88 97.7927517,96.557645 97.7927517,96.16 L97.7927517,58.3137786 C97.7927517,37.1467428 80.6334788,19.9874699 59.466443,19.9874699 L21.8601342,19.9874699 Z" id="Rectangle-Copy-12" stroke="#000000" stroke-width="6.24" fill-rule="nonzero"></path>
            <path d="M134.391758,91.5759036 C133.629303,91.5759036 132.894089,91.4666678 132.186094,91.2481928 L132.186094,37.5036145 C132.186094,35.9742895 132.580931,34.7590407 133.370617,33.8578313 C134.160304,32.956622 135.263125,32.5060241 136.679114,32.5060241 C137.332648,32.5060241 138.067862,32.61526 138.884779,32.8337349 L138.884779,39.2240964 C140.464151,36.8208715 142.288571,35.0048254 144.358094,33.7759036 C146.427617,32.5469818 148.8511,31.9325301 151.628617,31.9325301 C154.950746,31.9325301 157.864372,32.7927625 160.369584,34.513253 C162.874796,36.2337435 164.794521,38.6915503 166.128819,41.886747 C167.463116,45.0819437 168.130255,48.8096173 168.130255,53.0698795 C168.130255,57.6032355 167.381426,61.5766898 165.883745,64.9903614 C164.386064,68.4040331 162.248497,71.0393481 159.47098,72.8963855 C156.693463,74.7534229 153.453074,75.6819277 149.749718,75.6819277 C147.40789,75.6819277 145.379243,75.3132567 143.663718,74.5759036 C141.948193,73.8385505 140.355229,72.8144644 138.884779,71.5036145 L138.884779,86.5783133 C138.884779,88.1076382 138.489941,89.3228871 137.700255,90.2240964 C136.910569,91.1253057 135.807748,91.5759036 134.391758,91.5759036 Z M149.014497,70.2746988 C152.881236,70.2746988 155.890168,68.7590513 158.041383,65.7277108 C160.192597,62.6963704 161.268188,58.4225175 161.268188,52.9060241 C161.268188,47.8810994 160.369593,44.0305355 158.572376,41.3542169 C156.775159,38.6778983 154.188294,37.339759 150.811705,37.339759 C147.217271,37.339759 144.303644,38.8144431 142.070738,41.7638554 C139.837832,44.7132678 138.721396,48.7276854 138.721396,53.8072289 L138.721396,58.0674699 C138.721396,61.8907822 139.606376,64.8811137 141.376362,67.0385542 C143.146349,69.1959947 145.692368,70.2746988 149.014497,70.2746988 Z M179.567034,75.1903614 C178.750117,75.1903614 177.987672,75.0811256 177.279678,74.8626506 L177.279678,20.2168675 C177.279678,18.6875426 177.6609,17.4722937 178.423356,16.5710843 C179.185811,15.669875 180.275018,15.2192771 181.691007,15.2192771 C182.507924,15.2192771 183.270368,15.328513 183.978362,15.546988 L183.978362,70.1927711 C183.978362,71.722096 183.59714,72.9373449 182.834685,73.8385542 C182.072229,74.7397635 180.983023,75.1903614 179.567034,75.1903614 Z M208.240671,75.6819277 C203.774859,75.6819277 200.275784,74.5212967 197.743342,72.2 C195.2109,69.8787033 193.944698,66.7518269 193.944698,62.8192771 C193.944698,58.6682523 195.360666,55.3365587 198.192644,52.8240964 C201.024623,50.311634 204.918535,49.0554217 209.874497,49.0554217 C212.052942,49.0554217 213.863747,49.2738934 215.306966,49.7108434 C216.750186,50.1477933 218.125309,50.7758995 219.432376,51.5951807 L219.432376,47.6626506 C219.432376,44.3855258 218.561011,41.8594466 216.818255,40.0843373 C215.075499,38.3092281 212.543095,37.4216867 209.220966,37.4216867 C206.715755,37.4216867 204.523728,37.9269026 202.644819,38.9373494 C200.76591,39.9477962 199.091256,41.4634437 197.620805,43.4843373 C195.823588,42.8289124 194.924993,41.5727 194.924993,39.7156627 C194.924993,37.3124378 196.381806,35.4281193 199.295477,34.0626506 C202.209147,32.6971819 205.626531,32.0144578 209.547732,32.0144578 C214.939383,32.0144578 219.023906,33.3935605 221.801423,36.1518072 C224.57894,38.910054 225.967678,42.7469634 225.967678,47.6626506 L225.967678,70.1927711 C225.967678,71.722096 225.572841,72.9373449 224.783154,73.8385542 C223.993468,74.7397635 222.890647,75.1903614 221.474658,75.1903614 C220.821124,75.1903614 220.08591,75.0811256 219.268993,74.8626506 L219.268993,70.6024096 C218.070849,72.3502095 216.60042,73.6337308 214.857664,74.453012 C213.114909,75.2722933 210.909266,75.6819277 208.240671,75.6819277 Z M209.302658,70.4385542 C212.406942,70.4385542 214.871271,69.7012122 216.695718,68.226506 C218.520166,66.7517999 219.432376,64.7582455 219.432376,62.2457831 L219.432376,60.1975904 C219.432376,58.2859342 218.697162,56.7975957 217.226711,55.7325301 C215.756261,54.6674646 213.605079,54.1349398 210.773101,54.1349398 C207.505433,54.1349398 205.000259,54.8722818 203.257503,56.346988 C201.514747,57.8216941 200.643383,59.9517933 200.643383,62.7373494 C200.643383,65.2498118 201.378597,67.1614392 202.849047,68.4722892 C204.319497,69.7831391 206.470679,70.4385542 209.302658,70.4385542 Z M252.844107,75.6819277 C248.977368,75.6819277 245.600829,74.7943864 242.714389,73.0192771 C239.82795,71.2441678 237.622307,68.7044342 236.097396,65.4 C234.572485,62.0955658 233.81004,58.2313474 233.81004,53.8072289 C233.81004,49.3831104 234.572485,45.518892 236.097396,42.2144578 C237.622307,38.9100236 239.82795,36.37029 242.714389,34.5951807 C245.600829,32.8200714 248.977368,31.9325301 252.844107,31.9325301 C255.512702,31.9325301 258.004261,32.3285101 260.318859,33.1204819 C262.633457,33.9124538 264.498722,34.9911578 265.914711,36.3566265 C267.330701,37.7220952 268.038685,39.2240882 268.038685,40.8626506 C268.038685,42.6650693 267.19455,43.8393547 265.506255,44.3855422 C264.144727,42.3100298 262.361152,40.6988009 260.155477,39.5518072 C257.949801,38.4048135 255.512702,37.8313253 252.844107,37.8313253 C248.705062,37.8313253 245.64167,39.2240825 243.653839,42.0096386 C241.666008,44.7951947 240.672107,48.7276854 240.672107,53.8072289 C240.672107,58.8867724 241.666008,62.8192632 243.653839,65.6048193 C245.64167,68.3903754 248.705062,69.7831325 252.844107,69.7831325 C255.512702,69.7831325 257.949801,69.2096443 260.155477,68.0626506 C262.361152,66.9156569 264.144727,65.304428 265.506255,63.2289157 C267.19455,63.7751031 268.038685,64.9493886 268.038685,66.7518072 C268.038685,68.3903696 267.330701,69.8923627 265.914711,71.2578313 C264.498722,72.6233 262.633457,73.7020041 260.318859,74.4939759 C258.004261,75.2859477 255.512702,75.6819277 252.844107,75.6819277 Z M292.954523,75.6819277 C289.196706,75.6819277 285.874627,74.8080409 282.988188,73.060241 C280.101748,71.3124411 277.868876,68.8000164 276.289503,65.5228916 C274.710131,62.2457667 273.920456,58.4225118 273.920456,54.053012 C273.920456,49.6288935 274.723746,45.7510207 276.330349,42.4192771 C277.936952,39.0875335 280.169825,36.5068365 283.029034,34.6771084 C285.888242,32.8473804 289.196706,31.9325301 292.954523,31.9325301 C298.291713,31.9325301 302.471542,33.7485762 305.494134,37.3807229 C308.516727,41.0128696 310.028,45.9421375 310.028,52.1686747 C310.028,53.6979996 309.823774,54.7357402 309.415315,55.2819277 C309.006857,55.8281152 308.176337,56.1012048 306.923732,56.1012048 L280.619141,56.1012048 C280.619141,60.4160858 281.721962,63.8570153 283.927638,66.4240964 C286.133313,68.9911775 289.087785,70.2746988 292.791141,70.2746988 C295.514197,70.2746988 297.978526,69.6739016 300.184201,68.4722892 C302.389877,67.2706767 304.146222,65.6867568 305.453289,63.7204819 C307.087122,64.3212881 307.904027,65.5501915 307.904027,67.4072289 C307.904027,68.8819351 307.168813,70.2473833 305.698362,71.5036145 C304.227912,72.7598456 302.335416,73.7702773 300.020819,74.5349398 C297.706221,75.2996022 295.350813,75.6819277 292.954523,75.6819277 Z M303.329315,50.6120482 C303.220393,46.1879297 302.349028,42.8425816 300.715195,40.5759036 C299.081361,38.3092256 296.603417,37.1759036 293.281289,37.1759036 C289.795777,37.1759036 286.991071,38.377498 284.867087,40.7807229 C282.743103,43.1839478 281.381596,46.6794951 280.782523,51.2674699 L303.329315,50.6120482 Z M322.363383,26.5253012 C320.947393,26.5253012 319.762882,26.0473943 318.809812,25.0915663 C317.856742,24.1357382 317.380215,22.9477983 317.380215,21.5277108 C317.380215,20.1076234 317.856742,18.9196835 318.809812,17.9638554 C319.762882,17.0080273 320.947393,16.5301205 322.363383,16.5301205 C323.779372,16.5301205 324.963883,17.0080273 325.916953,17.9638554 C326.870023,18.9196835 327.34655,20.1076234 327.34655,21.5277108 C327.34655,22.9477983 326.870023,24.1357382 325.916953,25.0915663 C324.963883,26.0473943 323.779372,26.5253012 322.363383,26.5253012 Z M321.301396,75.1903614 C320.484479,75.1903614 319.722035,75.0811256 319.01404,74.8626506 L319.01404,37.4216867 C319.01404,35.8923618 319.395262,34.6771129 320.157718,33.7759036 C320.920174,32.8746943 322.00938,32.4240964 323.425369,32.4240964 C324.242286,32.4240964 325.00473,32.5333322 325.712725,32.7518072 L325.712725,70.1927711 C325.712725,71.722096 325.331503,72.9373449 324.569047,73.8385542 C323.806591,74.7397635 322.717385,75.1903614 321.301396,75.1903614 Z M356.020188,68.3903614 C356.61926,68.6634552 357.082173,69.0457807 357.40894,69.5373494 C357.735706,70.0289181 357.899087,70.6024064 357.899087,71.2578313 C357.899087,72.5140625 357.272794,73.5108397 356.020188,74.2481928 C354.767582,74.9855459 353.215463,75.3542169 351.363785,75.3542169 C348.096118,75.3542169 345.509253,74.2072404 343.603114,71.913253 C341.696975,69.6192656 340.743919,66.5060438 340.743919,62.573494 L340.743919,38.1590361 L334.617074,38.1590361 C334.344768,37.6128487 334.208617,37.0120515 334.208617,36.3566265 C334.208617,35.2642516 334.562609,34.4176737 335.270604,33.8168675 C335.978599,33.2160613 336.904424,32.9156627 338.048107,32.9156627 L340.743919,32.9156627 L340.743919,26.9349398 C340.743919,25.4056148 341.125142,24.190366 341.887597,23.2891566 C342.650053,22.3879473 343.739259,21.9373494 345.155248,21.9373494 C345.972165,21.9373494 346.734609,22.0465853 347.442604,22.2650602 L347.442604,32.9156627 L356.837101,32.9156627 C357.109406,33.4618501 357.245557,34.0626473 357.245557,34.7180723 C357.245557,35.8104472 356.891565,36.6570251 356.18357,37.2578313 C355.475576,37.8586375 354.549751,38.1590361 353.406067,38.1590361 L347.442604,38.1590361 L347.442604,62.573494 C347.442604,64.7582439 347.837441,66.4104362 348.627128,67.5301205 C349.416814,68.6498048 350.655786,69.2096386 352.344081,69.2096386 C353.542225,69.2096386 354.767582,68.9365489 356.020188,68.3903614 Z" id="placeit" fill="#000000"></path>
        </g>
    </g>
</svg>