<svg width="24" height="24" viewBox="0 0 24 24" fill="none" xmlns="http://www.w3.org/2000/svg">
<path d="M12 6C10.3431 6 9 4.65685 9 3C9 1.34315 10.3431 0 12 0C13.6569 0 15 1.34315 15 3C15 4.65685 13.6569 6 12 6Z" fill="#D5D5D5"/>
<path d="M8.00001 9C8.00094 8.20463 8.3173 7.44211 8.87971 6.8797C9.44212 6.31729 10.2046 6.00093 11 6H13C13.7954 6.00089 14.5579 6.31725 15.1203 6.87967C15.6827 7.44208 15.9991 8.20462 16 9V11C16 11.2652 15.8946 11.5196 15.7071 11.7071C15.5196 11.8946 15.2652 12 15 12H9.00001C8.73479 12 8.48044 11.8946 8.2929 11.7071C8.10537 11.5196 8.00001 11.2652 8.00001 11V9Z" fill="#D5D5D5"/>
<path d="M4 18C2.34315 18 1 16.6569 1 15C1 13.3431 2.34315 12 4 12C5.65685 12 7 13.3431 7 15C7 16.6569 5.65685 18 4 18Z" fill="#D5D5D5"/>
<path d="M3.00001 18H5C5.79537 18.0009 6.55789 18.3173 7.1203 18.8797C7.68271 19.4421 7.99907 20.2046 8 21V23C8 23.2652 7.89464 23.5196 7.70711 23.7071C7.51957 23.8946 7.26522 24 7 24H1.00001C0.734792 24 0.480438 23.8946 0.292902 23.7071C0.105365 23.5196 9.53674e-06 23.2652 9.53674e-06 23V21C0.000936031 20.2046 0.317304 19.4421 0.879712 18.8797C1.44212 18.3173 2.20464 18.0009 3.00001 18Z" fill="#D5D5D5"/>
<path d="M20 18C18.3431 18 17 16.6569 17 15C17 13.3431 18.3431 12 20 12C21.6569 12 23 13.3431 23 15C23 16.6569 21.6569 18 20 18Z" fill="#D5D5D5"/>
<path d="M19 18H21C21.7954 18.0009 22.5579 18.3172 23.1203 18.8797C23.6827 19.4421 23.9991 20.2046 24 21V23C24 23.2652 23.8946 23.5196 23.7071 23.7071C23.5196 23.8946 23.2652 24 23 24H17C16.7348 24 16.4804 23.8946 16.2929 23.7071C16.1054 23.5196 16 23.2652 16 23V21C16.0009 20.2046 16.3173 19.4421 16.8797 18.8797C17.4421 18.3172 18.2046 18.0009 19 18Z" fill="#D5D5D5"/>
<path d="M10.9999 13H12.9999V16.4649L15.5547 18.168L14.4453 19.832L11.9999 18.2019L9.55469 19.832L8.44532 18.168L10.9999 16.4649V13Z" fill="#D5D5D5"/>
</svg>
